G04*
G04 #@! TF.GenerationSoftware,Altium Limited,Altium Designer,20.0.2 (26)*
G04*
G04 Layer_Color=16711935*
%FSLAX44Y44*%
%MOMM*%
G71*
G01*
G75*
%ADD49C,0.8636*%
%ADD51R,1.0032X1.5032*%
%ADD54R,3.0032X2.2032*%
%ADD58R,1.5032X1.0032*%
G04:AMPARAMS|DCode=64|XSize=1.0032mm|YSize=1.5032mm|CornerRadius=0.3016mm|HoleSize=0mm|Usage=FLASHONLY|Rotation=180.000|XOffset=0mm|YOffset=0mm|HoleType=Round|Shape=RoundedRectangle|*
%AMROUNDEDRECTD64*
21,1,1.0032,0.9000,0,0,180.0*
21,1,0.4000,1.5032,0,0,180.0*
1,1,0.6032,-0.2000,0.4500*
1,1,0.6032,0.2000,0.4500*
1,1,0.6032,0.2000,-0.4500*
1,1,0.6032,-0.2000,-0.4500*
%
%ADD64ROUNDEDRECTD64*%
G04:AMPARAMS|DCode=67|XSize=1.0032mm|YSize=1.5032mm|CornerRadius=0.3016mm|HoleSize=0mm|Usage=FLASHONLY|Rotation=270.000|XOffset=0mm|YOffset=0mm|HoleType=Round|Shape=RoundedRectangle|*
%AMROUNDEDRECTD67*
21,1,1.0032,0.9000,0,0,270.0*
21,1,0.4000,1.5032,0,0,270.0*
1,1,0.6032,-0.4500,-0.2000*
1,1,0.6032,-0.4500,0.2000*
1,1,0.6032,0.4500,0.2000*
1,1,0.6032,0.4500,-0.2000*
%
%ADD67ROUNDEDRECTD67*%
G04:AMPARAMS|DCode=68|XSize=1.0032mm|YSize=1.2032mm|CornerRadius=0.3016mm|HoleSize=0mm|Usage=FLASHONLY|Rotation=0.000|XOffset=0mm|YOffset=0mm|HoleType=Round|Shape=RoundedRectangle|*
%AMROUNDEDRECTD68*
21,1,1.0032,0.6000,0,0,0.0*
21,1,0.4000,1.2032,0,0,0.0*
1,1,0.6032,0.2000,-0.3000*
1,1,0.6032,-0.2000,-0.3000*
1,1,0.6032,-0.2000,0.3000*
1,1,0.6032,0.2000,0.3000*
%
%ADD68ROUNDEDRECTD68*%
G04:AMPARAMS|DCode=71|XSize=1.0032mm|YSize=1.2032mm|CornerRadius=0.3016mm|HoleSize=0mm|Usage=FLASHONLY|Rotation=270.000|XOffset=0mm|YOffset=0mm|HoleType=Round|Shape=RoundedRectangle|*
%AMROUNDEDRECTD71*
21,1,1.0032,0.6000,0,0,270.0*
21,1,0.4000,1.2032,0,0,270.0*
1,1,0.6032,-0.3000,-0.2000*
1,1,0.6032,-0.3000,0.2000*
1,1,0.6032,0.3000,0.2000*
1,1,0.6032,0.3000,-0.2000*
%
%ADD71ROUNDEDRECTD71*%
G04:AMPARAMS|DCode=73|XSize=2.7432mm|YSize=1.1176mm|CornerRadius=0mm|HoleSize=0mm|Usage=FLASHONLY|Rotation=90.000|XOffset=0mm|YOffset=0mm|HoleType=Round|Shape=Octagon|*
%AMOCTAGOND73*
4,1,8,0.2794,1.3716,-0.2794,1.3716,-0.5588,1.0922,-0.5588,-1.0922,-0.2794,-1.3716,0.2794,-1.3716,0.5588,-1.0922,0.5588,1.0922,0.2794,1.3716,0.0*
%
%ADD73OCTAGOND73*%

%ADD81C,3.0000*%
%ADD82C,1.5748*%
%ADD83R,1.5748X1.5748*%
%ADD84R,1.5748X1.5748*%
%ADD85C,2.2032*%
%ADD86C,0.2032*%
%ADD87C,1.7272*%
%ADD128R,1.2032X1.0032*%
%ADD129R,0.8032X1.1032*%
G04:AMPARAMS|DCode=130|XSize=1.1032mm|YSize=0.8032mm|CornerRadius=0.2516mm|HoleSize=0mm|Usage=FLASHONLY|Rotation=90.000|XOffset=0mm|YOffset=0mm|HoleType=Round|Shape=RoundedRectangle|*
%AMROUNDEDRECTD130*
21,1,1.1032,0.3000,0,0,90.0*
21,1,0.6000,0.8032,0,0,90.0*
1,1,0.5032,0.1500,0.3000*
1,1,0.5032,0.1500,-0.3000*
1,1,0.5032,-0.1500,-0.3000*
1,1,0.5032,-0.1500,0.3000*
%
%ADD130ROUNDEDRECTD130*%
%ADD131R,1.1532X0.8032*%
%ADD132R,2.2032X2.2032*%
G04:AMPARAMS|DCode=133|XSize=2.2032mm|YSize=2.2032mm|CornerRadius=0.6016mm|HoleSize=0mm|Usage=FLASHONLY|Rotation=270.000|XOffset=0mm|YOffset=0mm|HoleType=Round|Shape=RoundedRectangle|*
%AMROUNDEDRECTD133*
21,1,2.2032,1.0000,0,0,270.0*
21,1,1.0000,2.2032,0,0,270.0*
1,1,1.2032,-0.5000,-0.5000*
1,1,1.2032,-0.5000,0.5000*
1,1,1.2032,0.5000,0.5000*
1,1,1.2032,0.5000,-0.5000*
%
%ADD133ROUNDEDRECTD133*%
%ADD134R,2.7032X2.5032*%
%ADD135R,0.9032X1.8032*%
%ADD136R,1.4032X1.6032*%
%ADD137R,1.8032X1.6032*%
%ADD138R,1.4032X2.2032*%
D49*
X1997380Y695940D02*
X2060880D01*
D51*
X2839520Y628640D02*
D03*
X2858520D02*
D03*
X3038520Y321640D02*
D03*
X3019520D02*
D03*
Y339640D02*
D03*
X3038520D02*
D03*
X3037520Y303640D02*
D03*
X3018520D02*
D03*
X3037520Y285640D02*
D03*
X3018520D02*
D03*
X3037520Y357640D02*
D03*
X3018520D02*
D03*
X3112520Y296640D02*
D03*
X3131520D02*
D03*
X3113520Y329640D02*
D03*
X3132520D02*
D03*
X3113520Y354640D02*
D03*
X3132520D02*
D03*
X3114520Y391640D02*
D03*
X3133520D02*
D03*
X3018470Y431640D02*
D03*
X3037470D02*
D03*
X3037520Y411370D02*
D03*
X3018520D02*
D03*
X3037520Y393640D02*
D03*
X3018520D02*
D03*
X3037520Y375640D02*
D03*
X3018520D02*
D03*
X3275128Y450900D02*
D03*
X3256128D02*
D03*
X3275128Y528270D02*
D03*
X3256128D02*
D03*
X3275128Y661640D02*
D03*
X3256128D02*
D03*
X3275128Y583640D02*
D03*
X3256128D02*
D03*
X2544520Y626640D02*
D03*
X2563520D02*
D03*
X2240520Y329640D02*
D03*
X2259520D02*
D03*
X1906520Y417640D02*
D03*
X1887520D02*
D03*
D54*
X1987520Y230640D02*
D03*
Y267470D02*
D03*
D58*
X2641520Y674640D02*
D03*
Y655640D02*
D03*
X2959520Y676640D02*
D03*
Y657640D02*
D03*
X3001520Y304640D02*
D03*
Y285640D02*
D03*
Y384640D02*
D03*
Y365640D02*
D03*
X3085520Y338640D02*
D03*
Y319640D02*
D03*
D64*
X2071520Y426640D02*
D03*
X2090520D02*
D03*
X2057520Y374640D02*
D03*
X2076520D02*
D03*
X2212520Y348690D02*
D03*
X2231520D02*
D03*
X2306520Y384536D02*
D03*
X2287520D02*
D03*
X2306520Y401536D02*
D03*
X2287520D02*
D03*
Y418536D02*
D03*
X2306520D02*
D03*
X2287520Y435640D02*
D03*
X2306520D02*
D03*
X2313520Y543640D02*
D03*
X2332520D02*
D03*
X2192740Y550640D02*
D03*
X2211740D02*
D03*
X2015520Y567640D02*
D03*
X2034520D02*
D03*
X2055520Y534640D02*
D03*
X2074520D02*
D03*
X1979520Y521640D02*
D03*
X1998520D02*
D03*
X2131520Y631640D02*
D03*
X2112520D02*
D03*
X2078520D02*
D03*
X2097520D02*
D03*
X1956520Y575640D02*
D03*
X1937520D02*
D03*
X1900520D02*
D03*
X1919520D02*
D03*
X2035520Y294640D02*
D03*
X2054520D02*
D03*
Y272640D02*
D03*
X2035520D02*
D03*
X2212520Y366690D02*
D03*
X2231520D02*
D03*
X1906520Y398640D02*
D03*
X1887520D02*
D03*
D67*
X2169520Y497640D02*
D03*
Y478640D02*
D03*
X2185520Y497640D02*
D03*
Y478640D02*
D03*
X2210520D02*
D03*
Y497640D02*
D03*
X2227520Y478640D02*
D03*
Y497640D02*
D03*
X2227520Y441640D02*
D03*
Y460640D02*
D03*
X2210520Y441640D02*
D03*
Y460640D02*
D03*
X2186520D02*
D03*
Y441640D02*
D03*
X2169520Y460640D02*
D03*
Y441640D02*
D03*
X2020520Y238640D02*
D03*
Y257640D02*
D03*
X2249520Y347690D02*
D03*
Y366690D02*
D03*
X2307520Y347640D02*
D03*
Y366640D02*
D03*
X2295520Y526640D02*
D03*
Y545640D02*
D03*
X2072520Y490640D02*
D03*
Y509640D02*
D03*
X2018520Y463640D02*
D03*
Y482640D02*
D03*
X2178520Y347690D02*
D03*
Y366690D02*
D03*
X2195520D02*
D03*
Y347690D02*
D03*
X2092520Y654640D02*
D03*
Y673640D02*
D03*
X2251520Y441640D02*
D03*
Y460640D02*
D03*
Y478640D02*
D03*
Y497640D02*
D03*
X2268520Y441640D02*
D03*
Y460640D02*
D03*
Y478640D02*
D03*
Y497640D02*
D03*
X2156520Y282640D02*
D03*
Y263640D02*
D03*
X2136520D02*
D03*
Y282640D02*
D03*
D68*
X2128520Y474640D02*
D03*
X2111520D02*
D03*
X2119520Y460640D02*
D03*
X2102520D02*
D03*
X2126520Y582640D02*
D03*
X2109520D02*
D03*
Y568640D02*
D03*
X2126520D02*
D03*
X2076520Y563640D02*
D03*
X2059520D02*
D03*
Y550640D02*
D03*
X2076520D02*
D03*
D71*
X2152520Y441640D02*
D03*
Y458640D02*
D03*
X2312520Y519790D02*
D03*
Y502790D02*
D03*
X2053520Y617640D02*
D03*
Y600640D02*
D03*
X2067520D02*
D03*
Y617640D02*
D03*
X2081520D02*
D03*
Y600640D02*
D03*
X2021520Y650640D02*
D03*
Y633640D02*
D03*
X2332520Y519790D02*
D03*
Y502790D02*
D03*
D73*
X2010080Y680700D02*
D03*
X2022780D02*
D03*
X2035480D02*
D03*
X2048180D02*
D03*
D81*
X3242520Y244640D02*
D03*
X1889520Y510640D02*
D03*
X2199520Y244640D02*
D03*
D82*
X3313520Y638640D02*
D03*
Y658640D02*
D03*
X2979522Y335640D02*
D03*
X2959522Y355640D02*
D03*
X2979522D02*
D03*
X2959522Y375640D02*
D03*
X2979522D02*
D03*
X2959522Y395640D02*
D03*
X2979522D02*
D03*
X2959522Y415640D02*
D03*
X2979522D02*
D03*
X2909520Y375640D02*
D03*
X2929520D02*
D03*
X2589520D02*
D03*
X2609520D02*
D03*
X2829520Y335640D02*
D03*
Y355640D02*
D03*
X2909520D02*
D03*
Y455640D02*
D03*
Y435640D02*
D03*
Y415640D02*
D03*
Y395640D02*
D03*
Y475640D02*
D03*
Y495640D02*
D03*
Y535640D02*
D03*
Y515640D02*
D03*
Y595640D02*
D03*
Y575640D02*
D03*
Y555640D02*
D03*
X2829520Y675640D02*
D03*
Y655640D02*
D03*
X2909520Y675640D02*
D03*
Y655640D02*
D03*
X2869520Y335640D02*
D03*
X2849520Y355640D02*
D03*
Y335640D02*
D03*
X2889520Y355640D02*
D03*
Y335640D02*
D03*
X2869520Y355640D02*
D03*
X2929520D02*
D03*
Y335640D02*
D03*
Y435640D02*
D03*
Y455640D02*
D03*
Y415640D02*
D03*
Y395640D02*
D03*
Y475640D02*
D03*
Y535640D02*
D03*
Y515640D02*
D03*
Y495640D02*
D03*
Y595640D02*
D03*
Y575640D02*
D03*
Y615640D02*
D03*
Y555640D02*
D03*
X2869520Y675640D02*
D03*
Y655640D02*
D03*
X2849520Y675640D02*
D03*
Y655640D02*
D03*
X2889520Y675640D02*
D03*
Y655640D02*
D03*
X2929520Y675640D02*
D03*
Y655640D02*
D03*
X2589520Y355640D02*
D03*
Y335640D02*
D03*
X2609520Y355640D02*
D03*
Y335640D02*
D03*
X2629520Y355640D02*
D03*
X2649520Y335640D02*
D03*
Y355640D02*
D03*
X2669520Y335640D02*
D03*
Y355640D02*
D03*
X2689520Y335640D02*
D03*
Y355640D02*
D03*
X2709520Y335640D02*
D03*
Y355640D02*
D03*
X2729520D02*
D03*
Y335640D02*
D03*
X2749520D02*
D03*
Y355640D02*
D03*
X2769520D02*
D03*
Y335640D02*
D03*
X2789520Y355640D02*
D03*
Y335640D02*
D03*
X2809520Y355640D02*
D03*
Y335640D02*
D03*
X2589520Y455640D02*
D03*
Y435640D02*
D03*
Y415640D02*
D03*
Y395640D02*
D03*
X2609520Y455640D02*
D03*
Y415640D02*
D03*
Y395640D02*
D03*
Y435640D02*
D03*
X2589520Y475640D02*
D03*
Y495640D02*
D03*
Y515640D02*
D03*
Y535640D02*
D03*
X2609520Y475640D02*
D03*
Y515640D02*
D03*
Y535640D02*
D03*
Y495640D02*
D03*
X2589520Y595640D02*
D03*
Y555640D02*
D03*
Y575640D02*
D03*
X2609520Y595640D02*
D03*
Y615640D02*
D03*
Y555640D02*
D03*
Y575640D02*
D03*
X2669520Y675640D02*
D03*
X2689520D02*
D03*
Y655640D02*
D03*
X2709520Y675640D02*
D03*
Y655640D02*
D03*
X2729520Y675640D02*
D03*
Y655640D02*
D03*
X2749520Y675640D02*
D03*
Y655640D02*
D03*
X2769520Y675640D02*
D03*
Y655640D02*
D03*
X2789520Y675640D02*
D03*
Y655640D02*
D03*
X2809520Y675640D02*
D03*
Y655640D02*
D03*
X3231120Y325040D02*
D03*
Y350440D02*
D03*
X3256520Y325040D02*
D03*
X2012520Y374640D02*
D03*
X1986520D02*
D03*
X1885620Y349290D02*
D03*
Y323890D02*
D03*
X2012620D02*
D03*
X1987220Y349290D02*
D03*
Y323890D02*
D03*
X1961820Y349290D02*
D03*
Y323890D02*
D03*
X1936420Y349290D02*
D03*
Y323890D02*
D03*
X1911020Y349290D02*
D03*
Y323890D02*
D03*
X2418320Y350440D02*
D03*
Y325040D02*
D03*
X2545320D02*
D03*
X2519920Y350440D02*
D03*
Y325040D02*
D03*
X2494520Y350440D02*
D03*
Y325040D02*
D03*
X2469120Y350440D02*
D03*
Y325040D02*
D03*
X2443720Y350440D02*
D03*
Y325040D02*
D03*
X3313520Y298640D02*
D03*
Y498640D02*
D03*
Y238640D02*
D03*
Y258640D02*
D03*
X3333520Y218640D02*
D03*
X3313520Y218640D02*
D03*
X3333520Y238640D02*
D03*
Y258640D02*
D03*
Y278640D02*
D03*
X3313520Y278640D02*
D03*
X3333520Y298640D02*
D03*
X3313520Y438640D02*
D03*
Y458640D02*
D03*
X3333520Y418640D02*
D03*
X3313520Y418640D02*
D03*
X3333520Y438640D02*
D03*
Y458640D02*
D03*
Y478640D02*
D03*
X3313520D02*
D03*
X3333520Y498640D02*
D03*
Y398640D02*
D03*
X3313520Y378640D02*
D03*
X3333520Y378640D02*
D03*
X3313520Y398640D02*
D03*
X3333520Y358640D02*
D03*
X3313520Y338640D02*
D03*
X3333520Y338640D02*
D03*
X3313520Y358640D02*
D03*
X3333520Y318640D02*
D03*
X3313520Y318640D02*
D03*
Y518640D02*
D03*
X3333520D02*
D03*
X3313520Y558640D02*
D03*
X3333520Y538640D02*
D03*
X3313520D02*
D03*
X3333520Y558640D02*
D03*
X3313520Y598640D02*
D03*
X3333520Y578640D02*
D03*
X3313520D02*
D03*
X3333520Y598640D02*
D03*
Y698640D02*
D03*
X3313520Y678640D02*
D03*
X3333520D02*
D03*
Y658640D02*
D03*
Y638640D02*
D03*
X3313520Y618640D02*
D03*
X3333520D02*
D03*
D83*
X2959522Y335640D02*
D03*
X2909520D02*
D03*
Y615640D02*
D03*
X2589520D02*
D03*
X3313520Y698640D02*
D03*
D84*
X2629520Y335640D02*
D03*
X2669520Y655640D02*
D03*
X3256520Y350440D02*
D03*
X2012520Y394640D02*
D03*
X1986520D02*
D03*
X2012620Y349290D02*
D03*
X2545320Y350440D02*
D03*
D85*
X2254320Y673640D02*
D03*
X2174520D02*
D03*
D86*
X2359520Y229640D02*
D03*
Y389640D02*
D03*
Y329640D02*
D03*
Y289640D02*
D03*
Y529640D02*
D03*
Y689640D02*
D03*
Y629640D02*
D03*
Y589640D02*
D03*
X2359514Y489640D02*
D03*
Y429640D02*
D03*
D87*
X1886520Y377640D02*
D03*
X1918520Y367640D02*
D03*
D128*
X2076520Y341640D02*
D03*
Y358640D02*
D03*
X2099520Y371640D02*
D03*
Y388640D02*
D03*
D129*
X2086520Y255640D02*
D03*
Y272640D02*
D03*
X2096520D02*
D03*
X2141520Y300640D02*
D03*
X2151520Y317640D02*
D03*
X2141520D02*
D03*
D130*
X2096520Y255640D02*
D03*
X2151520Y300640D02*
D03*
D131*
X2266520Y348190D02*
D03*
Y357690D02*
D03*
Y367190D02*
D03*
X2291020D02*
D03*
Y348190D02*
D03*
D132*
X2148520Y495640D02*
D03*
Y535640D02*
D03*
X2097720Y495640D02*
D03*
D133*
Y535640D02*
D03*
D134*
X1926520Y287640D02*
D03*
Y230640D02*
D03*
X1885520D02*
D03*
Y287640D02*
D03*
D135*
X2202070Y568640D02*
D03*
X2213070D02*
D03*
X2191070D02*
D03*
X2235070D02*
D03*
X2246070D02*
D03*
X2224070D02*
D03*
X2169070D02*
D03*
X2180070D02*
D03*
X2158070D02*
D03*
D136*
X2146320Y573640D02*
D03*
D137*
X2292320D02*
D03*
D138*
X2301320Y669640D02*
D03*
X2146320D02*
D03*
M02*
