G04*
G04 #@! TF.GenerationSoftware,Altium Limited,Altium Designer,20.0.2 (26)*
G04*
G04 Layer_Color=439754*
%FSLAX44Y44*%
%MOMM*%
G71*
G01*
G75*
%ADD10C,0.1000*%
%ADD11C,0.2540*%
%ADD12C,0.1524*%
%ADD13C,0.2500*%
%ADD14C,0.6000*%
%ADD15C,0.2000*%
%ADD16C,0.1500*%
%ADD17C,0.1270*%
D10*
X2734020Y296420D02*
G03*
X2734020Y296420I-500J0D01*
G01*
X1973020Y505800D02*
G03*
X1973020Y505800I-500J0D01*
G01*
D11*
X3000934Y575140D02*
G03*
X3000934Y575140I-1414J0D01*
G01*
Y441140D02*
G03*
X3000934Y441140I-1414J0D01*
G01*
X2871820Y264510D02*
X2897220D01*
X2667820Y272940D02*
Y298340D01*
X1873520Y394640D02*
Y555640D01*
X1955520D01*
X1964520Y546640D02*
Y555640D01*
X1955520D02*
X1964520D01*
X1873520Y394640D02*
X1956200D01*
X1964520Y402960D02*
Y546640D01*
X1956200Y394640D02*
X1964520Y402960D01*
X1886820Y588340D02*
X1912220D01*
X1944820Y599770D02*
X1970220D01*
X1976820Y448770D02*
X2002220D01*
X1995550Y563830D02*
Y567640D01*
X1991740D02*
X1995550Y571450D01*
X1991740Y567640D02*
X1995550Y563830D01*
Y567640D02*
Y571450D01*
X1990470Y563830D02*
Y571450D01*
X1992976Y567584D02*
X1995516D01*
X1995550Y581830D02*
Y585640D01*
X1991740D02*
X1995550Y589450D01*
X1991740Y585640D02*
X1995550Y581830D01*
Y585640D02*
Y589450D01*
X1990470Y581830D02*
Y589450D01*
X1992976Y585584D02*
X1995516D01*
X1995550Y599830D02*
Y603640D01*
X1991740D02*
X1995550Y607450D01*
X1991740Y603640D02*
X1995550Y599830D01*
Y603640D02*
Y607450D01*
X1990470Y599830D02*
Y607450D01*
X1992976Y603584D02*
X1995516D01*
X2175820Y254770D02*
X2201220D01*
X3249520Y463640D02*
Y469638D01*
X3252519D01*
X3253519Y468638D01*
Y466639D01*
X3252519Y465639D01*
X3249520D01*
X3251519D02*
X3253519Y463640D01*
X3255518D02*
X3257517D01*
X3256518D01*
Y469638D01*
X3255518Y468638D01*
X3260516Y463640D02*
X3262516D01*
X3261516D01*
Y469638D01*
X3260516Y468638D01*
X3269514Y463640D02*
X3265515D01*
X3269514Y467639D01*
Y468638D01*
X3268514Y469638D01*
X3266514D01*
X3265515Y468638D01*
X3191520Y469640D02*
Y475638D01*
X3194519D01*
X3195519Y474638D01*
Y472639D01*
X3194519Y471639D01*
X3191520D01*
X3193519D02*
X3195519Y469640D01*
X3197518D02*
X3199518D01*
X3198518D01*
Y475638D01*
X3197518Y474638D01*
X3202516Y469640D02*
X3204516D01*
X3203516D01*
Y475638D01*
X3202516Y474638D01*
X3207515D02*
X3208514Y475638D01*
X3210514D01*
X3211513Y474638D01*
Y470640D01*
X3210514Y469640D01*
X3208514D01*
X3207515Y470640D01*
Y474638D01*
X3211520Y487640D02*
X3205522D01*
Y490639D01*
X3206522Y491639D01*
X3208521D01*
X3209521Y490639D01*
Y487640D01*
Y489639D02*
X3211520Y491639D01*
Y493638D02*
Y495637D01*
Y494638D01*
X3205522D01*
X3206522Y493638D01*
Y498636D02*
X3205522Y499636D01*
Y501635D01*
X3206522Y502635D01*
X3210520D01*
X3211520Y501635D01*
Y499636D01*
X3210520Y498636D01*
X3206522D01*
X3205522Y508633D02*
X3206522Y506634D01*
X3208521Y504635D01*
X3210520D01*
X3211520Y505634D01*
Y507634D01*
X3210520Y508633D01*
X3209521D01*
X3208521Y507634D01*
Y504635D01*
X3213520Y625640D02*
X3207522D01*
Y628639D01*
X3208522Y629639D01*
X3210521D01*
X3211521Y628639D01*
Y625640D01*
Y627639D02*
X3213520Y629639D01*
X3212520Y631638D02*
X3213520Y632638D01*
Y634637D01*
X3212520Y635637D01*
X3208522D01*
X3207522Y634637D01*
Y632638D01*
X3208522Y631638D01*
X3209521D01*
X3210521Y632638D01*
Y635637D01*
X3208522Y637636D02*
X3207522Y638636D01*
Y640635D01*
X3208522Y641635D01*
X3209521D01*
X3210521Y640635D01*
Y639636D01*
Y640635D01*
X3211521Y641635D01*
X3212520D01*
X3213520Y640635D01*
Y638636D01*
X3212520Y637636D01*
X3198114Y603250D02*
Y609248D01*
X3201113D01*
X3202113Y608248D01*
Y606249D01*
X3201113Y605249D01*
X3198114D01*
X3200114D02*
X3202113Y603250D01*
X3204112Y604250D02*
X3205112Y603250D01*
X3207111D01*
X3208111Y604250D01*
Y608248D01*
X3207111Y609248D01*
X3205112D01*
X3204112Y608248D01*
Y607249D01*
X3205112Y606249D01*
X3208111D01*
X3210110Y609248D02*
X3214109D01*
Y608248D01*
X3210110Y604250D01*
Y603250D01*
X3013202Y428020D02*
Y423022D01*
X3014202Y422022D01*
X3016201D01*
X3017201Y423022D01*
Y428020D01*
X3019200D02*
X3023199D01*
Y427020D01*
X3019200Y423022D01*
Y422022D01*
X2893180Y381022D02*
Y386020D01*
X2892180Y387020D01*
X2890181D01*
X2889181Y386020D01*
Y381022D01*
X2883183D02*
X2885182Y382022D01*
X2887182Y384021D01*
Y386020D01*
X2886182Y387020D01*
X2884183D01*
X2883183Y386020D01*
Y385021D01*
X2884183Y384021D01*
X2887182D01*
X2986024Y566830D02*
X2990023D01*
X2988023D01*
Y560832D01*
X2996021D02*
X2992022D01*
X2996021Y564831D01*
Y565830D01*
X2995021Y566830D01*
X2993022D01*
X2992022Y565830D01*
X2986024Y700688D02*
X2990023D01*
X2988023D01*
Y694690D01*
X2992022D02*
X2994021D01*
X2993022D01*
Y700688D01*
X2992022Y699688D01*
X3251454Y544322D02*
Y550320D01*
X3254453D01*
X3255453Y549320D01*
Y547321D01*
X3254453Y546321D01*
X3251454D01*
X3253453D02*
X3255453Y544322D01*
X3257452D02*
X3259451D01*
X3258452D01*
Y550320D01*
X3257452Y549320D01*
X3262450D02*
X3263450Y550320D01*
X3265450D01*
X3266449Y549320D01*
Y545322D01*
X3265450Y544322D01*
X3263450D01*
X3262450Y545322D01*
Y549320D01*
X3271447Y544322D02*
Y550320D01*
X3268448Y547321D01*
X3272447D01*
X3196082Y544322D02*
Y550320D01*
X3199081D01*
X3200081Y549320D01*
Y547321D01*
X3199081Y546321D01*
X3196082D01*
X3198081D02*
X3200081Y544322D01*
X3202080D02*
X3204079D01*
X3203080D01*
Y550320D01*
X3202080Y549320D01*
X3207079D02*
X3208078Y550320D01*
X3210078D01*
X3211077Y549320D01*
Y545322D01*
X3210078Y544322D01*
X3208078D01*
X3207079Y545322D01*
Y549320D01*
X3213076D02*
X3214076Y550320D01*
X3216075D01*
X3217075Y549320D01*
Y548321D01*
X3216075Y547321D01*
X3215076D01*
X3216075D01*
X3217075Y546321D01*
Y545322D01*
X3216075Y544322D01*
X3214076D01*
X3213076Y545322D01*
X3251454Y599694D02*
Y605692D01*
X3254453D01*
X3255453Y604692D01*
Y602693D01*
X3254453Y601693D01*
X3251454D01*
X3253453D02*
X3255453Y599694D01*
X3257452Y600694D02*
X3258452Y599694D01*
X3260451D01*
X3261451Y600694D01*
Y604692D01*
X3260451Y605692D01*
X3258452D01*
X3257452Y604692D01*
Y603693D01*
X3258452Y602693D01*
X3261451D01*
X3263450Y600694D02*
X3264450Y599694D01*
X3266449D01*
X3267449Y600694D01*
Y604692D01*
X3266449Y605692D01*
X3264450D01*
X3263450Y604692D01*
Y603693D01*
X3264450Y602693D01*
X3267449D01*
X3251454Y677672D02*
Y683670D01*
X3254453D01*
X3255453Y682670D01*
Y680671D01*
X3254453Y679671D01*
X3251454D01*
X3253453D02*
X3255453Y677672D01*
X3257452Y678672D02*
X3258452Y677672D01*
X3260451D01*
X3261451Y678672D01*
Y682670D01*
X3260451Y683670D01*
X3258452D01*
X3257452Y682670D01*
Y681671D01*
X3258452Y680671D01*
X3261451D01*
X3263450Y677672D02*
X3265450D01*
X3264450D01*
Y683670D01*
X3263450Y682670D01*
X3198114Y678180D02*
Y684178D01*
X3201113D01*
X3202113Y683178D01*
Y681179D01*
X3201113Y680179D01*
X3198114D01*
X3200114D02*
X3202113Y678180D01*
X3204112Y679180D02*
X3205112Y678180D01*
X3207111D01*
X3208111Y679180D01*
Y683178D01*
X3207111Y684178D01*
X3205112D01*
X3204112Y683178D01*
Y682179D01*
X3205112Y681179D01*
X3208111D01*
X3210110Y683178D02*
X3211110Y684178D01*
X3213109D01*
X3214109Y683178D01*
Y679180D01*
X3213109Y678180D01*
X3211110D01*
X3210110Y679180D01*
Y683178D01*
D12*
X3114750Y281480D02*
G03*
X3099510Y281480I-7620J0D01*
G01*
X2577520Y313640D02*
X2941520D01*
X2644520Y390640D02*
X2874520D01*
Y620640D01*
X2644520D02*
X2874520D01*
X2644520Y390640D02*
Y620640D01*
X2899520Y315280D02*
Y425640D01*
X2941300Y425770D01*
X2577521Y697640D02*
X2941520D01*
X2577520Y313640D02*
Y697640D01*
X2941520Y313640D02*
Y697640D01*
X2659520Y645640D02*
X2939520D01*
X2659520Y645640D02*
Y697550D01*
X2619520Y314010D02*
Y625640D01*
X2579520D02*
X2619520D01*
Y365640D02*
X2899520D01*
Y425640D02*
Y625640D01*
Y425640D02*
X2941300Y425770D01*
X2899520Y625640D02*
X2939520D01*
X3011520Y281480D02*
Y413560D01*
X3197520Y281480D02*
Y413560D01*
X3011520D02*
X3197520D01*
X3114750Y281480D02*
X3197520D01*
X3011520D02*
X3099510D01*
D13*
X2122770Y384640D02*
G03*
X2122770Y384640I-1250J0D01*
G01*
X2052770Y340640D02*
G03*
X2052770Y340640I-1250J0D01*
G01*
X2061270Y323940D02*
G03*
X2061270Y323940I-1250J0D01*
G01*
X2084770Y418890D02*
G03*
X2084770Y418890I-1250J0D01*
G01*
D14*
X2088520Y313490D02*
G03*
X2088520Y313490I-3000J0D01*
G01*
X2095770Y439640D02*
G03*
X2095770Y439640I-3000J0D01*
G01*
D15*
X2917520Y222640D02*
Y227640D01*
X2914520Y219640D02*
X2917520Y222640D01*
X2794520Y219640D02*
X2914520D01*
X2791520Y222640D02*
X2794520Y219640D01*
X2791520Y222640D02*
Y227640D01*
X3206660Y443530D02*
X3222520Y443640D01*
X3206520Y461640D02*
X3222520D01*
X3233520Y498640D02*
X3233630Y482780D01*
X3215520Y482640D02*
Y498640D01*
X3236520Y630640D02*
X3236630Y614780D01*
X3218520Y614640D02*
Y630640D01*
X3208660Y576530D02*
X3224520Y576640D01*
X3208520Y594640D02*
X3224520D01*
X2867520Y239110D02*
X2901520D01*
Y253080D01*
X2867520Y239110D02*
Y253080D01*
Y301340D02*
X2901520D01*
X2867520Y287370D02*
Y301340D01*
X2901520Y287370D02*
Y301340D01*
X2736520Y270510D02*
X2764520D01*
X2736520Y302010D02*
X2764520D01*
X2693220Y268640D02*
Y302640D01*
X2679250D02*
X2693220D01*
X2679250Y268640D02*
X2693220D01*
X2630990D02*
Y302640D01*
Y268640D02*
X2644960D01*
X2630990Y302640D02*
X2644960D01*
X3208520Y669640D02*
X3224520D01*
X3208660Y651530D02*
X3224520Y651640D01*
X2984520Y571140D02*
Y686140D01*
Y571140D02*
X2994520Y561140D01*
X3181520D01*
X2984520Y686140D02*
X3181520D01*
X3140520Y561140D02*
Y686140D01*
X3025520Y561140D02*
Y686140D01*
X3181520Y561140D02*
Y686140D01*
X3206520Y535640D02*
X3222520D01*
X3206660Y517530D02*
X3222520Y517640D01*
X2984520Y437140D02*
Y552140D01*
Y437140D02*
X2994520Y427140D01*
X3181520D01*
X2984520Y552140D02*
X3181520D01*
X3140520Y427140D02*
Y552140D01*
X3025520Y427140D02*
Y552140D01*
X3181520Y427140D02*
Y552140D01*
X1916520Y611200D02*
Y625170D01*
X1882520Y611200D02*
Y625170D01*
X1916520D01*
X1882520Y562940D02*
Y576910D01*
X1916520Y562940D02*
Y576910D01*
X1882520Y562940D02*
X1916520D01*
X1940520D02*
Y576910D01*
X1974520Y562940D02*
Y576910D01*
X1940520Y562940D02*
X1974520D01*
Y611200D02*
Y625170D01*
X1940520Y611200D02*
Y625170D01*
X1974520D01*
X1972520Y411940D02*
Y425910D01*
X2006520Y411940D02*
Y425910D01*
X1972520Y411940D02*
X2006520D01*
Y460200D02*
Y474170D01*
X1972520Y460200D02*
Y474170D01*
X2006520D01*
X1975520Y479890D02*
X2003520D01*
X1975520Y511390D02*
X2003520D01*
X2089020Y351140D02*
Y374140D01*
X2120020Y351140D02*
Y374140D01*
X2089020Y351140D02*
X2120020D01*
X2089020Y374140D02*
X2120020D01*
X2084020Y351140D02*
Y374140D01*
X2053020Y351140D02*
Y374140D01*
X2084020D01*
X2053020Y351140D02*
X2084020D01*
X2075520Y218490D02*
X2136020D01*
X2075520Y323490D02*
X2136020D01*
Y218490D02*
Y323490D01*
X2075520Y218490D02*
Y323490D01*
X2171520Y280170D02*
X2205520D01*
X2171520Y266200D02*
Y280170D01*
X2205520Y266200D02*
Y280170D01*
X2171520Y217940D02*
X2205520D01*
Y231910D01*
X2171520Y217940D02*
Y231910D01*
X2273770Y429640D02*
Y620640D01*
X2082770Y429640D02*
Y620640D01*
X2273770D01*
X2082770Y429640D02*
X2273770D01*
X2873519Y233638D02*
X2872519Y234638D01*
X2870520D01*
X2869520Y233638D01*
Y229640D01*
X2870520Y228640D01*
X2872519D01*
X2873519Y229640D01*
X2879517Y234638D02*
X2875518D01*
Y231639D01*
X2877517Y232639D01*
X2878517D01*
X2879517Y231639D01*
Y229640D01*
X2878517Y228640D01*
X2876518D01*
X2875518Y229640D01*
X2884515Y228640D02*
Y234638D01*
X2881516Y231639D01*
X2885515D01*
X2829519Y248638D02*
X2828519Y249638D01*
X2826520D01*
X2825520Y248638D01*
Y244640D01*
X2826520Y243640D01*
X2828519D01*
X2829519Y244640D01*
X2835517Y249638D02*
X2831518D01*
Y246639D01*
X2833517Y247639D01*
X2834517D01*
X2835517Y246639D01*
Y244640D01*
X2834517Y243640D01*
X2832518D01*
X2831518Y244640D01*
X2837516Y248638D02*
X2838516Y249638D01*
X2840515D01*
X2841515Y248638D01*
Y247639D01*
X2840515Y246639D01*
X2839515D01*
X2840515D01*
X2841515Y245639D01*
Y244640D01*
X2840515Y243640D01*
X2838516D01*
X2837516Y244640D01*
X2829519Y261638D02*
X2828519Y262638D01*
X2826520D01*
X2825520Y261638D01*
Y257640D01*
X2826520Y256640D01*
X2828519D01*
X2829519Y257640D01*
X2834517Y256640D02*
Y262638D01*
X2831518Y259639D01*
X2835517D01*
X2837516Y261638D02*
X2838516Y262638D01*
X2840515D01*
X2841515Y261638D01*
Y260639D01*
X2840515Y259639D01*
X2841515Y258639D01*
Y257640D01*
X2840515Y256640D01*
X2838516D01*
X2837516Y257640D01*
Y258639D01*
X2838516Y259639D01*
X2837516Y260639D01*
Y261638D01*
X2838516Y259639D02*
X2840515D01*
X2914519Y295638D02*
X2913519Y296638D01*
X2911520D01*
X2910520Y295638D01*
Y291640D01*
X2911520Y290640D01*
X2913519D01*
X2914519Y291640D01*
X2920517Y296638D02*
X2916518D01*
Y293639D01*
X2918517Y294639D01*
X2919517D01*
X2920517Y293639D01*
Y291640D01*
X2919517Y290640D01*
X2917518D01*
X2916518Y291640D01*
X2926515Y296638D02*
X2922516D01*
Y293639D01*
X2924515Y294639D01*
X2925515D01*
X2926515Y293639D01*
Y291640D01*
X2925515Y290640D01*
X2923516D01*
X2922516Y291640D01*
X2910520Y271640D02*
Y277638D01*
X2913519D01*
X2914519Y276638D01*
Y274639D01*
X2913519Y273639D01*
X2910520D01*
X2912520D02*
X2914519Y271640D01*
X2916518Y276638D02*
X2917518Y277638D01*
X2919517D01*
X2920517Y276638D01*
Y275639D01*
X2919517Y274639D01*
X2920517Y273639D01*
Y272640D01*
X2919517Y271640D01*
X2917518D01*
X2916518Y272640D01*
Y273639D01*
X2917518Y274639D01*
X2916518Y275639D01*
Y276638D01*
X2917518Y274639D02*
X2919517D01*
X2922516Y272640D02*
X2923516Y271640D01*
X2925515D01*
X2926515Y272640D01*
Y276638D01*
X2925515Y277638D01*
X2923516D01*
X2922516Y276638D01*
Y275639D01*
X2923516Y274639D01*
X2926515D01*
X2910520Y252640D02*
Y258638D01*
X2913519D01*
X2914519Y257638D01*
Y255639D01*
X2913519Y254639D01*
X2910520D01*
X2912520D02*
X2914519Y252640D01*
X2916518Y257638D02*
X2917518Y258638D01*
X2919517D01*
X2920517Y257638D01*
Y256639D01*
X2919517Y255639D01*
X2920517Y254639D01*
Y253640D01*
X2919517Y252640D01*
X2917518D01*
X2916518Y253640D01*
Y254639D01*
X2917518Y255639D01*
X2916518Y256639D01*
Y257638D01*
X2917518Y255639D02*
X2919517D01*
X2926515Y258638D02*
X2924515Y257638D01*
X2922516Y255639D01*
Y253640D01*
X2923516Y252640D01*
X2925515D01*
X2926515Y253640D01*
Y254639D01*
X2925515Y255639D01*
X2922516D01*
X2910520Y234640D02*
Y240638D01*
X2913519D01*
X2914519Y239638D01*
Y237639D01*
X2913519Y236639D01*
X2910520D01*
X2912520D02*
X2914519Y234640D01*
X2916518Y239638D02*
X2917518Y240638D01*
X2919517D01*
X2920517Y239638D01*
Y238639D01*
X2919517Y237639D01*
X2920517Y236639D01*
Y235640D01*
X2919517Y234640D01*
X2917518D01*
X2916518Y235640D01*
Y236639D01*
X2917518Y237639D01*
X2916518Y238639D01*
Y239638D01*
X2917518Y237639D02*
X2919517D01*
X2922516Y240638D02*
X2926515D01*
Y239638D01*
X2922516Y235640D01*
Y234640D01*
X2741519Y258638D02*
X2740519Y259638D01*
X2738520D01*
X2737520Y258638D01*
Y254640D01*
X2738520Y253640D01*
X2740519D01*
X2741519Y254640D01*
Y256639D01*
X2739519D01*
X2743518Y258638D02*
X2744518Y259638D01*
X2746517D01*
X2747517Y258638D01*
Y257639D01*
X2746517Y256639D01*
X2745517D01*
X2746517D01*
X2747517Y255639D01*
Y254640D01*
X2746517Y253640D01*
X2744518D01*
X2743518Y254640D01*
X2710520Y249640D02*
X2704522D01*
Y252639D01*
X2705522Y253639D01*
X2707521D01*
X2708521Y252639D01*
Y249640D01*
Y251639D02*
X2710520Y253639D01*
X2705522Y255638D02*
X2704522Y256638D01*
Y258637D01*
X2705522Y259637D01*
X2706521D01*
X2707521Y258637D01*
X2708521Y259637D01*
X2709520D01*
X2710520Y258637D01*
Y256638D01*
X2709520Y255638D01*
X2708521D01*
X2707521Y256638D01*
X2706521Y255638D01*
X2705522D01*
X2707521Y256638D02*
Y258637D01*
X2704522Y265635D02*
Y261636D01*
X2707521D01*
X2706521Y263636D01*
Y264635D01*
X2707521Y265635D01*
X2709520D01*
X2710520Y264635D01*
Y262636D01*
X2709520Y261636D01*
X2636519Y261638D02*
X2635519Y262638D01*
X2633520D01*
X2632520Y261638D01*
Y257640D01*
X2633520Y256640D01*
X2635519D01*
X2636519Y257640D01*
X2641517Y256640D02*
Y262638D01*
X2638518Y259639D01*
X2642517D01*
X2644516Y262638D02*
X2648515D01*
Y261638D01*
X2644516Y257640D01*
Y256640D01*
X2587519Y275638D02*
X2586519Y276638D01*
X2584520D01*
X2583520Y275638D01*
Y271640D01*
X2584520Y270640D01*
X2586519D01*
X2587519Y271640D01*
X2592517Y270640D02*
Y276638D01*
X2589518Y273639D01*
X2593517D01*
X2595516Y271640D02*
X2596516Y270640D01*
X2598515D01*
X2599515Y271640D01*
Y275638D01*
X2598515Y276638D01*
X2596516D01*
X2595516Y275638D01*
Y274639D01*
X2596516Y273639D01*
X2599515D01*
X2543322Y615116D02*
Y621114D01*
X2546321D01*
X2547321Y620114D01*
Y618115D01*
X2546321Y617115D01*
X2543322D01*
X2545321D02*
X2547321Y615116D01*
X2549320Y620114D02*
X2550320Y621114D01*
X2552319D01*
X2553319Y620114D01*
Y619115D01*
X2552319Y618115D01*
X2553319Y617115D01*
Y616116D01*
X2552319Y615116D01*
X2550320D01*
X2549320Y616116D01*
Y617115D01*
X2550320Y618115D01*
X2549320Y619115D01*
Y620114D01*
X2550320Y618115D02*
X2552319D01*
X2555318Y620114D02*
X2556318Y621114D01*
X2558317D01*
X2559317Y620114D01*
Y619115D01*
X2558317Y618115D01*
X2557318D01*
X2558317D01*
X2559317Y617115D01*
Y616116D01*
X2558317Y615116D01*
X2556318D01*
X2555318Y616116D01*
X2543250Y592996D02*
Y598994D01*
X2546249D01*
X2547249Y597994D01*
Y595995D01*
X2546249Y594995D01*
X2543250D01*
X2545249D02*
X2547249Y592996D01*
X2549248Y597994D02*
X2550248Y598994D01*
X2552247D01*
X2553247Y597994D01*
Y596995D01*
X2552247Y595995D01*
X2553247Y594995D01*
Y593996D01*
X2552247Y592996D01*
X2550248D01*
X2549248Y593996D01*
Y594995D01*
X2550248Y595995D01*
X2549248Y596995D01*
Y597994D01*
X2550248Y595995D02*
X2552247D01*
X2555246Y597994D02*
X2556246Y598994D01*
X2558245D01*
X2559245Y597994D01*
Y593996D01*
X2558245Y592996D01*
X2556246D01*
X2555246Y593996D01*
Y597994D01*
X2543250Y572094D02*
Y578092D01*
X2546249D01*
X2547249Y577092D01*
Y575093D01*
X2546249Y574093D01*
X2543250D01*
X2545249D02*
X2547249Y572094D01*
X2549248Y577092D02*
X2550248Y578092D01*
X2552247D01*
X2553247Y577092D01*
Y576093D01*
X2552247Y575093D01*
X2553247Y574093D01*
Y573094D01*
X2552247Y572094D01*
X2550248D01*
X2549248Y573094D01*
Y574093D01*
X2550248Y575093D01*
X2549248Y576093D01*
Y577092D01*
X2550248Y575093D02*
X2552247D01*
X2559245Y572094D02*
X2555246D01*
X2559245Y576093D01*
Y577092D01*
X2558245Y578092D01*
X2556246D01*
X2555246Y577092D01*
X2543370Y550024D02*
Y556022D01*
X2546369D01*
X2547369Y555022D01*
Y553023D01*
X2546369Y552023D01*
X2543370D01*
X2545369D02*
X2547369Y550024D01*
X2549368Y556022D02*
X2553367D01*
Y555022D01*
X2549368Y551024D01*
Y550024D01*
X2559365Y556022D02*
X2557366Y555022D01*
X2555366Y553023D01*
Y551024D01*
X2556366Y550024D01*
X2558365D01*
X2559365Y551024D01*
Y552023D01*
X2558365Y553023D01*
X2555366D01*
X2543250Y527160D02*
Y533158D01*
X2546249D01*
X2547249Y532158D01*
Y530159D01*
X2546249Y529159D01*
X2543250D01*
X2545249D02*
X2547249Y527160D01*
X2549248Y533158D02*
X2553247D01*
Y532158D01*
X2549248Y528160D01*
Y527160D01*
X2558245D02*
Y533158D01*
X2555246Y530159D01*
X2559245D01*
X2543318Y505214D02*
Y511212D01*
X2546317D01*
X2547317Y510212D01*
Y508213D01*
X2546317Y507213D01*
X2543318D01*
X2545317D02*
X2547317Y505214D01*
X2549316Y511212D02*
X2553315D01*
Y510212D01*
X2549316Y506214D01*
Y505214D01*
X2559313D02*
X2555314D01*
X2559313Y509213D01*
Y510212D01*
X2558313Y511212D01*
X2556314D01*
X2555314Y510212D01*
X2543402Y483176D02*
Y489174D01*
X2546401D01*
X2547401Y488174D01*
Y486175D01*
X2546401Y485175D01*
X2543402D01*
X2545401D02*
X2547401Y483176D01*
X2549400Y489174D02*
X2553399D01*
Y488174D01*
X2549400Y484176D01*
Y483176D01*
X2555398Y488174D02*
X2556398Y489174D01*
X2558397D01*
X2559397Y488174D01*
Y484176D01*
X2558397Y483176D01*
X2556398D01*
X2555398Y484176D01*
Y488174D01*
X2543430Y462096D02*
Y468094D01*
X2546429D01*
X2547429Y467094D01*
Y465095D01*
X2546429Y464095D01*
X2543430D01*
X2545429D02*
X2547429Y462096D01*
X2549428Y468094D02*
X2553427D01*
Y467094D01*
X2549428Y463096D01*
Y462096D01*
X2555426Y467094D02*
X2556426Y468094D01*
X2558425D01*
X2559425Y467094D01*
Y466095D01*
X2558425Y465095D01*
X2559425Y464095D01*
Y463096D01*
X2558425Y462096D01*
X2556426D01*
X2555426Y463096D01*
Y464095D01*
X2556426Y465095D01*
X2555426Y466095D01*
Y467094D01*
X2556426Y465095D02*
X2558425D01*
X2543266Y441070D02*
Y447068D01*
X2546265D01*
X2547265Y446068D01*
Y444069D01*
X2546265Y443069D01*
X2543266D01*
X2545265D02*
X2547265Y441070D01*
X2553263Y447068D02*
X2551263Y446068D01*
X2549264Y444069D01*
Y442070D01*
X2550264Y441070D01*
X2552263D01*
X2553263Y442070D01*
Y443069D01*
X2552263Y444069D01*
X2549264D01*
X2559261Y441070D02*
X2555262D01*
X2559261Y445069D01*
Y446068D01*
X2558261Y447068D01*
X2556262D01*
X2555262Y446068D01*
X2543370Y420996D02*
Y426994D01*
X2546369D01*
X2547369Y425994D01*
Y423995D01*
X2546369Y422995D01*
X2543370D01*
X2545369D02*
X2547369Y420996D01*
X2553367Y426994D02*
X2551367Y425994D01*
X2549368Y423995D01*
Y421996D01*
X2550368Y420996D01*
X2552367D01*
X2553367Y421996D01*
Y422995D01*
X2552367Y423995D01*
X2549368D01*
X2558365Y420996D02*
Y426994D01*
X2555366Y423995D01*
X2559365D01*
X2543370Y399084D02*
Y405082D01*
X2546369D01*
X2547369Y404082D01*
Y402083D01*
X2546369Y401083D01*
X2543370D01*
X2545369D02*
X2547369Y399084D01*
X2553367Y405082D02*
X2551367Y404082D01*
X2549368Y402083D01*
Y400084D01*
X2550368Y399084D01*
X2552367D01*
X2553367Y400084D01*
Y401083D01*
X2552367Y402083D01*
X2549368D01*
X2559365Y405082D02*
X2557366Y404082D01*
X2555366Y402083D01*
Y400084D01*
X2556366Y399084D01*
X2558365D01*
X2559365Y400084D01*
Y401083D01*
X2558365Y402083D01*
X2555366D01*
X2543250Y378986D02*
Y384984D01*
X2546249D01*
X2547249Y383984D01*
Y381985D01*
X2546249Y380985D01*
X2543250D01*
X2545249D02*
X2547249Y378986D01*
X2553247Y384984D02*
X2551248Y383984D01*
X2549248Y381985D01*
Y379986D01*
X2550248Y378986D01*
X2552247D01*
X2553247Y379986D01*
Y380985D01*
X2552247Y381985D01*
X2549248D01*
X2555246Y384984D02*
X2559245D01*
Y383984D01*
X2555246Y379986D01*
Y378986D01*
X2437520Y389640D02*
Y395638D01*
X2440519D01*
X2441519Y394638D01*
Y392639D01*
X2440519Y391639D01*
X2437520D01*
X2439519D02*
X2441519Y389640D01*
X2447517Y395638D02*
X2445517Y394638D01*
X2443518Y392639D01*
Y390640D01*
X2444518Y389640D01*
X2446517D01*
X2447517Y390640D01*
Y391639D01*
X2446517Y392639D01*
X2443518D01*
X2449516Y394638D02*
X2450516Y395638D01*
X2452515D01*
X2453515Y394638D01*
Y393639D01*
X2452515Y392639D01*
X2453515Y391639D01*
Y390640D01*
X2452515Y389640D01*
X2450516D01*
X2449516Y390640D01*
Y391639D01*
X2450516Y392639D01*
X2449516Y393639D01*
Y394638D01*
X2450516Y392639D02*
X2452515D01*
X2437334Y411036D02*
Y417034D01*
X2440333D01*
X2441333Y416034D01*
Y414035D01*
X2440333Y413035D01*
X2437334D01*
X2439333D02*
X2441333Y411036D01*
X2447331Y417034D02*
X2445331Y416034D01*
X2443332Y414035D01*
Y412036D01*
X2444332Y411036D01*
X2446331D01*
X2447331Y412036D01*
Y413035D01*
X2446331Y414035D01*
X2443332D01*
X2453329Y417034D02*
X2449330D01*
Y414035D01*
X2451329Y415035D01*
X2452329D01*
X2453329Y414035D01*
Y412036D01*
X2452329Y411036D01*
X2450330D01*
X2449330Y412036D01*
X2437334Y431134D02*
Y437132D01*
X2440333D01*
X2441333Y436132D01*
Y434133D01*
X2440333Y433133D01*
X2437334D01*
X2439333D02*
X2441333Y431134D01*
X2447331Y437132D02*
X2445331Y436132D01*
X2443332Y434133D01*
Y432134D01*
X2444332Y431134D01*
X2446331D01*
X2447331Y432134D01*
Y433133D01*
X2446331Y434133D01*
X2443332D01*
X2449330Y436132D02*
X2450330Y437132D01*
X2452329D01*
X2453329Y436132D01*
Y435133D01*
X2452329Y434133D01*
X2451329D01*
X2452329D01*
X2453329Y433133D01*
Y432134D01*
X2452329Y431134D01*
X2450330D01*
X2449330Y432134D01*
X2437334Y452966D02*
Y458964D01*
X2440333D01*
X2441333Y457964D01*
Y455965D01*
X2440333Y454965D01*
X2437334D01*
X2439333D02*
X2441333Y452966D01*
X2443332Y457964D02*
X2444332Y458964D01*
X2446331D01*
X2447331Y457964D01*
Y456965D01*
X2446331Y455965D01*
X2447331Y454965D01*
Y453966D01*
X2446331Y452966D01*
X2444332D01*
X2443332Y453966D01*
Y454965D01*
X2444332Y455965D01*
X2443332Y456965D01*
Y457964D01*
X2444332Y455965D02*
X2446331D01*
X2452329Y452966D02*
Y458964D01*
X2449330Y455965D01*
X2453329D01*
X2437334Y473126D02*
Y479124D01*
X2440333D01*
X2441333Y478124D01*
Y476125D01*
X2440333Y475125D01*
X2437334D01*
X2439333D02*
X2441333Y473126D01*
X2443332Y479124D02*
X2447331D01*
Y478124D01*
X2443332Y474126D01*
Y473126D01*
X2449330D02*
X2451329D01*
X2450330D01*
Y479124D01*
X2449330Y478124D01*
X2437334Y496210D02*
Y502208D01*
X2440333D01*
X2441333Y501208D01*
Y499209D01*
X2440333Y498209D01*
X2437334D01*
X2439333D02*
X2441333Y496210D01*
X2447331Y502208D02*
X2445331Y501208D01*
X2443332Y499209D01*
Y497210D01*
X2444332Y496210D01*
X2446331D01*
X2447331Y497210D01*
Y498209D01*
X2446331Y499209D01*
X2443332D01*
X2449330Y497210D02*
X2450330Y496210D01*
X2452329D01*
X2453329Y497210D01*
Y501208D01*
X2452329Y502208D01*
X2450330D01*
X2449330Y501208D01*
Y500209D01*
X2450330Y499209D01*
X2453329D01*
X2437334Y518200D02*
Y524198D01*
X2440333D01*
X2441333Y523198D01*
Y521199D01*
X2440333Y520199D01*
X2437334D01*
X2439333D02*
X2441333Y518200D01*
X2443332Y524198D02*
X2447331D01*
Y523198D01*
X2443332Y519200D01*
Y518200D01*
X2449330Y523198D02*
X2450330Y524198D01*
X2452329D01*
X2453329Y523198D01*
Y522199D01*
X2452329Y521199D01*
X2451329D01*
X2452329D01*
X2453329Y520199D01*
Y519200D01*
X2452329Y518200D01*
X2450330D01*
X2449330Y519200D01*
X2437334Y539974D02*
Y545972D01*
X2440333D01*
X2441333Y544972D01*
Y542973D01*
X2440333Y541973D01*
X2437334D01*
X2439333D02*
X2441333Y539974D01*
X2443332Y545972D02*
X2447331D01*
Y544972D01*
X2443332Y540974D01*
Y539974D01*
X2453329Y545972D02*
X2449330D01*
Y542973D01*
X2451329Y543973D01*
X2452329D01*
X2453329Y542973D01*
Y540974D01*
X2452329Y539974D01*
X2450330D01*
X2449330Y540974D01*
X2437398Y563108D02*
Y569106D01*
X2440397D01*
X2441397Y568106D01*
Y566107D01*
X2440397Y565107D01*
X2437398D01*
X2439397D02*
X2441397Y563108D01*
X2443396Y569106D02*
X2447395D01*
Y568106D01*
X2443396Y564108D01*
Y563108D01*
X2449394Y569106D02*
X2453393D01*
Y568106D01*
X2449394Y564108D01*
Y563108D01*
X2437520Y582640D02*
Y588638D01*
X2440519D01*
X2441519Y587638D01*
Y585639D01*
X2440519Y584639D01*
X2437520D01*
X2439519D02*
X2441519Y582640D01*
X2443518Y587638D02*
X2444518Y588638D01*
X2446517D01*
X2447517Y587638D01*
Y586639D01*
X2446517Y585639D01*
X2447517Y584639D01*
Y583640D01*
X2446517Y582640D01*
X2444518D01*
X2443518Y583640D01*
Y584639D01*
X2444518Y585639D01*
X2443518Y586639D01*
Y587638D01*
X2444518Y585639D02*
X2446517D01*
X2449516Y582640D02*
X2451516D01*
X2450516D01*
Y588638D01*
X2449516Y587638D01*
X2437520Y605640D02*
Y611638D01*
X2440519D01*
X2441519Y610638D01*
Y608639D01*
X2440519Y607639D01*
X2437520D01*
X2439519D02*
X2441519Y605640D01*
X2443518Y611638D02*
X2447517D01*
Y610638D01*
X2443518Y606640D01*
Y605640D01*
X2449516Y606640D02*
X2450516Y605640D01*
X2452515D01*
X2453515Y606640D01*
Y610638D01*
X2452515Y611638D01*
X2450516D01*
X2449516Y610638D01*
Y609639D01*
X2450516Y608639D01*
X2453515D01*
X2208852Y345989D02*
X2207852Y344989D01*
Y342990D01*
X2208852Y341990D01*
X2212850D01*
X2213850Y342990D01*
Y344989D01*
X2212850Y345989D01*
X2213850Y351987D02*
Y347988D01*
X2209851Y351987D01*
X2208852D01*
X2207852Y350987D01*
Y348988D01*
X2208852Y347988D01*
X2207852Y353986D02*
Y357985D01*
X2208852D01*
X2212850Y353986D01*
X2213850D01*
X2046210Y565158D02*
Y559160D01*
X2049209D01*
X2050209Y560160D01*
Y564158D01*
X2049209Y565158D01*
X2046210D01*
X2052208Y559160D02*
X2054207D01*
X2053208D01*
Y565158D01*
X2052208Y564158D01*
X2046210Y610878D02*
Y604880D01*
X2049209D01*
X2050209Y605880D01*
Y609878D01*
X2049209Y610878D01*
X2046210D01*
X2056207Y604880D02*
X2052208D01*
X2056207Y608879D01*
Y609878D01*
X2055207Y610878D01*
X2053208D01*
X2052208Y609878D01*
X2046210Y588018D02*
Y582020D01*
X2049209D01*
X2050209Y583020D01*
Y587018D01*
X2049209Y588018D01*
X2046210D01*
X2052208Y587018D02*
X2053208Y588018D01*
X2055207D01*
X2056207Y587018D01*
Y586019D01*
X2055207Y585019D01*
X2054207D01*
X2055207D01*
X2056207Y584019D01*
Y583020D01*
X2055207Y582020D01*
X2053208D01*
X2052208Y583020D01*
X2046210Y547730D02*
Y553728D01*
X2049209D01*
X2050209Y552728D01*
Y550729D01*
X2049209Y549729D01*
X2046210D01*
X2048209D02*
X2050209Y547730D01*
X2056207D02*
X2052208D01*
X2056207Y551729D01*
Y552728D01*
X2055207Y553728D01*
X2053208D01*
X2052208Y552728D01*
X2058206Y553728D02*
X2062205D01*
Y552728D01*
X2058206Y548730D01*
Y547730D01*
X2046210Y593450D02*
Y599448D01*
X2049209D01*
X2050209Y598448D01*
Y596449D01*
X2049209Y595449D01*
X2046210D01*
X2048209D02*
X2050209Y593450D01*
X2052208Y598448D02*
X2053208Y599448D01*
X2055207D01*
X2056207Y598448D01*
Y597449D01*
X2055207Y596449D01*
X2054207D01*
X2055207D01*
X2056207Y595449D01*
Y594450D01*
X2055207Y593450D01*
X2053208D01*
X2052208Y594450D01*
X2058206Y598448D02*
X2059206Y599448D01*
X2061205D01*
X2062205Y598448D01*
Y594450D01*
X2061205Y593450D01*
X2059206D01*
X2058206Y594450D01*
Y598448D01*
X2046210Y570590D02*
Y576588D01*
X2049209D01*
X2050209Y575588D01*
Y573589D01*
X2049209Y572589D01*
X2046210D01*
X2048209D02*
X2050209Y570590D01*
X2052208Y575588D02*
X2053208Y576588D01*
X2055207D01*
X2056207Y575588D01*
Y574589D01*
X2055207Y573589D01*
X2054207D01*
X2055207D01*
X2056207Y572589D01*
Y571590D01*
X2055207Y570590D01*
X2053208D01*
X2052208Y571590D01*
X2058206Y575588D02*
X2059206Y576588D01*
X2061205D01*
X2062205Y575588D01*
Y574589D01*
X2061205Y573589D01*
X2060206D01*
X2061205D01*
X2062205Y572589D01*
Y571590D01*
X2061205Y570590D01*
X2059206D01*
X2058206Y571590D01*
X2104630Y663300D02*
Y669298D01*
X2107629D01*
X2108629Y668298D01*
Y666299D01*
X2107629Y665299D01*
X2104630D01*
X2106629D02*
X2108629Y663300D01*
X2113627D02*
Y669298D01*
X2110628Y666299D01*
X2114627D01*
X2116626Y668298D02*
X2117626Y669298D01*
X2119625D01*
X2120625Y668298D01*
Y664300D01*
X2119625Y663300D01*
X2117626D01*
X2116626Y664300D01*
Y668298D01*
X2104630Y648060D02*
Y654058D01*
X2107629D01*
X2108629Y653058D01*
Y651059D01*
X2107629Y650059D01*
X2104630D01*
X2106629D02*
X2108629Y648060D01*
X2113627D02*
Y654058D01*
X2110628Y651059D01*
X2114627D01*
X2116626Y648060D02*
X2118625D01*
X2117626D01*
Y654058D01*
X2116626Y653058D01*
X2173210Y317860D02*
Y323858D01*
X2176209D01*
X2177209Y322858D01*
Y320859D01*
X2176209Y319859D01*
X2173210D01*
X2175209D02*
X2177209Y317860D01*
X2182207D02*
Y323858D01*
X2179208Y320859D01*
X2183207D01*
X2188205Y317860D02*
Y323858D01*
X2185206Y320859D01*
X2189205D01*
X2094470Y369578D02*
Y364580D01*
X2095470Y363580D01*
X2097469D01*
X2098469Y364580D01*
Y369578D01*
X2100468Y363580D02*
X2102467D01*
X2101468D01*
Y369578D01*
X2100468Y368578D01*
X2057640Y369578D02*
Y364580D01*
X2058640Y363580D01*
X2060639D01*
X2061639Y364580D01*
Y369578D01*
X2063638Y368578D02*
X2064638Y369578D01*
X2066637D01*
X2067637Y368578D01*
Y367579D01*
X2066637Y366579D01*
X2065637D01*
X2066637D01*
X2067637Y365579D01*
Y364580D01*
X2066637Y363580D01*
X2064638D01*
X2063638Y364580D01*
X2080500Y302268D02*
Y297270D01*
X2081500Y296270D01*
X2083499D01*
X2084499Y297270D01*
Y302268D01*
X2090497D02*
X2086498D01*
Y299269D01*
X2088497Y300269D01*
X2089497D01*
X2090497Y299269D01*
Y297270D01*
X2089497Y296270D01*
X2087498D01*
X2086498Y297270D01*
X3217672Y380140D02*
X3221671Y374142D01*
Y380140D02*
X3217672Y374142D01*
X3223670D02*
X3225669D01*
X3224670D01*
Y380140D01*
X3223670Y379140D01*
X3228669Y374142D02*
X3230668D01*
X3229668D01*
Y380140D01*
X3228669Y379140D01*
X2104630Y677270D02*
Y683268D01*
X2107629D01*
X2108629Y682268D01*
Y680269D01*
X2107629Y679269D01*
X2104630D01*
X2106629D02*
X2108629Y677270D01*
X2114627D02*
X2110628D01*
X2114627Y681269D01*
Y682268D01*
X2113627Y683268D01*
X2111628D01*
X2110628Y682268D01*
X2116626Y677270D02*
X2118625D01*
X2117626D01*
Y683268D01*
X2116626Y682268D01*
X2104630Y691240D02*
Y697238D01*
X2107629D01*
X2108629Y696238D01*
Y694239D01*
X2107629Y693239D01*
X2104630D01*
X2106629D02*
X2108629Y691240D01*
X2114627D02*
X2110628D01*
X2114627Y695239D01*
Y696238D01*
X2113627Y697238D01*
X2111628D01*
X2110628Y696238D01*
X2116626D02*
X2117626Y697238D01*
X2119625D01*
X2120625Y696238D01*
Y695239D01*
X2119625Y694239D01*
X2118625D01*
X2119625D01*
X2120625Y693239D01*
Y692240D01*
X2119625Y691240D01*
X2117626D01*
X2116626Y692240D01*
X2311640Y562970D02*
X2305642D01*
Y565969D01*
X2306642Y566969D01*
X2308641D01*
X2309641Y565969D01*
Y562970D01*
Y564969D02*
X2311640Y566969D01*
Y572967D02*
Y568968D01*
X2307641Y572967D01*
X2306642D01*
X2305642Y571967D01*
Y569968D01*
X2306642Y568968D01*
X2311640Y577965D02*
X2305642D01*
X2308641Y574966D01*
Y578965D01*
X2317990Y678540D02*
X2311992D01*
Y681539D01*
X2312992Y682539D01*
X2314991D01*
X2315991Y681539D01*
Y678540D01*
Y680539D02*
X2317990Y682539D01*
Y688537D02*
Y684538D01*
X2313991Y688537D01*
X2312992D01*
X2311992Y687537D01*
Y685538D01*
X2312992Y684538D01*
X2311992Y694535D02*
Y690536D01*
X2314991D01*
X2313991Y692535D01*
Y693535D01*
X2314991Y694535D01*
X2316990D01*
X2317990Y693535D01*
Y691536D01*
X2316990Y690536D01*
X2255760Y691240D02*
Y697238D01*
X2258759D01*
X2259759Y696238D01*
Y694239D01*
X2258759Y693239D01*
X2255760D01*
X2257759D02*
X2259759Y691240D01*
X2265757D02*
X2261758D01*
X2265757Y695239D01*
Y696238D01*
X2264757Y697238D01*
X2262758D01*
X2261758Y696238D01*
X2271755Y697238D02*
X2269756Y696238D01*
X2267756Y694239D01*
Y692240D01*
X2268756Y691240D01*
X2270755D01*
X2271755Y692240D01*
Y693239D01*
X2270755Y694239D01*
X2267756D01*
X2305372Y535219D02*
X2304372Y534219D01*
Y532220D01*
X2305372Y531220D01*
X2309370D01*
X2310370Y532220D01*
Y534219D01*
X2309370Y535219D01*
X2305372Y537218D02*
X2304372Y538218D01*
Y540217D01*
X2305372Y541217D01*
X2306371D01*
X2307371Y540217D01*
Y539217D01*
Y540217D01*
X2308371Y541217D01*
X2309370D01*
X2310370Y540217D01*
Y538218D01*
X2309370Y537218D01*
X2310370Y543216D02*
Y545215D01*
Y544216D01*
X2304372D01*
X2305372Y543216D01*
X2300399Y405408D02*
X2299399Y406408D01*
X2297400D01*
X2296400Y405408D01*
Y401410D01*
X2297400Y400410D01*
X2299399D01*
X2300399Y401410D01*
X2302398Y405408D02*
X2303398Y406408D01*
X2305397D01*
X2306397Y405408D01*
Y404409D01*
X2305397Y403409D01*
X2304397D01*
X2305397D01*
X2306397Y402409D01*
Y401410D01*
X2305397Y400410D01*
X2303398D01*
X2302398Y401410D01*
X2312395Y406408D02*
X2308396D01*
Y403409D01*
X2310396Y404409D01*
X2311395D01*
X2312395Y403409D01*
Y401410D01*
X2311395Y400410D01*
X2309396D01*
X2308396Y401410D01*
X2206419Y693698D02*
X2205419Y694698D01*
X2203420D01*
X2202420Y693698D01*
Y689700D01*
X2203420Y688700D01*
X2205419D01*
X2206419Y689700D01*
X2208418Y693698D02*
X2209418Y694698D01*
X2211417D01*
X2212417Y693698D01*
Y692699D01*
X2211417Y691699D01*
X2210417D01*
X2211417D01*
X2212417Y690699D01*
Y689700D01*
X2211417Y688700D01*
X2209418D01*
X2208418Y689700D01*
X2214416Y694698D02*
X2218415D01*
Y693698D01*
X2214416Y689700D01*
Y688700D01*
X2257112Y649519D02*
X2256112Y648519D01*
Y646520D01*
X2257112Y645520D01*
X2261110D01*
X2262110Y646520D01*
Y648519D01*
X2261110Y649519D01*
X2257112Y651518D02*
X2256112Y652518D01*
Y654517D01*
X2257112Y655517D01*
X2258111D01*
X2259111Y654517D01*
Y653517D01*
Y654517D01*
X2260111Y655517D01*
X2261110D01*
X2262110Y654517D01*
Y652518D01*
X2261110Y651518D01*
Y657516D02*
X2262110Y658516D01*
Y660515D01*
X2261110Y661515D01*
X2257112D01*
X2256112Y660515D01*
Y658516D01*
X2257112Y657516D01*
X2258111D01*
X2259111Y658516D01*
Y661515D01*
X2069070Y688348D02*
X2073069Y682350D01*
Y688348D02*
X2069070Y682350D01*
X2075068D02*
X2077067D01*
X2076068D01*
Y688348D01*
X2075068Y687348D01*
X2028430Y370848D02*
X2032429Y364850D01*
Y370848D02*
X2028430Y364850D01*
X2038427Y370848D02*
X2036427Y369848D01*
X2034428Y367849D01*
Y365850D01*
X2035428Y364850D01*
X2037427D01*
X2038427Y365850D01*
Y366849D01*
X2037427Y367849D01*
X2034428D01*
X1961120Y372118D02*
X1965119Y366120D01*
Y372118D02*
X1961120Y366120D01*
X1971117Y372118D02*
X1967118D01*
Y369119D01*
X1969117Y370119D01*
X1970117D01*
X1971117Y369119D01*
Y367120D01*
X1970117Y366120D01*
X1968118D01*
X1967118Y367120D01*
X1868410Y645168D02*
X1872409Y639170D01*
Y645168D02*
X1868410Y639170D01*
X1877407D02*
Y645168D01*
X1874408Y642169D01*
X1878407D01*
X2284222Y310642D02*
Y316640D01*
X2287221D01*
X2288221Y315640D01*
Y313641D01*
X2287221Y312641D01*
X2284222D01*
X2286221D02*
X2288221Y310642D01*
X2294219Y316640D02*
X2290220D01*
Y313641D01*
X2292219Y314641D01*
X2293219D01*
X2294219Y313641D01*
Y311642D01*
X2293219Y310642D01*
X2291220D01*
X2290220Y311642D01*
X2296218Y315640D02*
X2297218Y316640D01*
X2299217D01*
X2300217Y315640D01*
Y314641D01*
X2299217Y313641D01*
X2300217Y312641D01*
Y311642D01*
X2299217Y310642D01*
X2297218D01*
X2296218Y311642D01*
Y312641D01*
X2297218Y313641D01*
X2296218Y314641D01*
Y315640D01*
X2297218Y313641D02*
X2299217D01*
X2249170Y310642D02*
Y316640D01*
X2252169D01*
X2253169Y315640D01*
Y313641D01*
X2252169Y312641D01*
X2249170D01*
X2251169D02*
X2253169Y310642D01*
X2259167Y316640D02*
X2255168D01*
Y313641D01*
X2257167Y314641D01*
X2258167D01*
X2259167Y313641D01*
Y311642D01*
X2258167Y310642D01*
X2256168D01*
X2255168Y311642D01*
X2261166Y316640D02*
X2265165D01*
Y315640D01*
X2261166Y311642D01*
Y310642D01*
X2283700Y321670D02*
Y327668D01*
X2286699D01*
X2287699Y326668D01*
Y324669D01*
X2286699Y323669D01*
X2283700D01*
X2285699D02*
X2287699Y321670D01*
X2293697Y327668D02*
X2289698D01*
Y324669D01*
X2291697Y325669D01*
X2292697D01*
X2293697Y324669D01*
Y322670D01*
X2292697Y321670D01*
X2290698D01*
X2289698Y322670D01*
X2299695Y327668D02*
X2297695Y326668D01*
X2295696Y324669D01*
Y322670D01*
X2296696Y321670D01*
X2298695D01*
X2299695Y322670D01*
Y323669D01*
X2298695Y324669D01*
X2295696D01*
X2249410Y321670D02*
Y327668D01*
X2252409D01*
X2253409Y326668D01*
Y324669D01*
X2252409Y323669D01*
X2249410D01*
X2251409D02*
X2253409Y321670D01*
X2259407Y327668D02*
X2255408D01*
Y324669D01*
X2257407Y325669D01*
X2258407D01*
X2259407Y324669D01*
Y322670D01*
X2258407Y321670D01*
X2256408D01*
X2255408Y322670D01*
X2265405Y327668D02*
X2261406D01*
Y324669D01*
X2263405Y325669D01*
X2264405D01*
X2265405Y324669D01*
Y322670D01*
X2264405Y321670D01*
X2262406D01*
X2261406Y322670D01*
X2283700Y333100D02*
Y339098D01*
X2286699D01*
X2287699Y338098D01*
Y336099D01*
X2286699Y335099D01*
X2283700D01*
X2285699D02*
X2287699Y333100D01*
X2293697Y339098D02*
X2289698D01*
Y336099D01*
X2291697Y337099D01*
X2292697D01*
X2293697Y336099D01*
Y334100D01*
X2292697Y333100D01*
X2290698D01*
X2289698Y334100D01*
X2298695Y333100D02*
Y339098D01*
X2295696Y336099D01*
X2299695D01*
X2249410Y333100D02*
Y339098D01*
X2252409D01*
X2253409Y338098D01*
Y336099D01*
X2252409Y335099D01*
X2249410D01*
X2251409D02*
X2253409Y333100D01*
X2259407Y339098D02*
X2255408D01*
Y336099D01*
X2257407Y337099D01*
X2258407D01*
X2259407Y336099D01*
Y334100D01*
X2258407Y333100D01*
X2256408D01*
X2255408Y334100D01*
X2261406Y338098D02*
X2262406Y339098D01*
X2264405D01*
X2265405Y338098D01*
Y337099D01*
X2264405Y336099D01*
X2263405D01*
X2264405D01*
X2265405Y335099D01*
Y334100D01*
X2264405Y333100D01*
X2262406D01*
X2261406Y334100D01*
X2283700Y344530D02*
Y350528D01*
X2286699D01*
X2287699Y349528D01*
Y347529D01*
X2286699Y346529D01*
X2283700D01*
X2285699D02*
X2287699Y344530D01*
X2293697Y350528D02*
X2289698D01*
Y347529D01*
X2291697Y348529D01*
X2292697D01*
X2293697Y347529D01*
Y345530D01*
X2292697Y344530D01*
X2290698D01*
X2289698Y345530D01*
X2299695Y344530D02*
X2295696D01*
X2299695Y348529D01*
Y349528D01*
X2298695Y350528D01*
X2296696D01*
X2295696Y349528D01*
X2249410Y344530D02*
Y350528D01*
X2252409D01*
X2253409Y349528D01*
Y347529D01*
X2252409Y346529D01*
X2249410D01*
X2251409D02*
X2253409Y344530D01*
X2259407Y350528D02*
X2255408D01*
Y347529D01*
X2257407Y348529D01*
X2258407D01*
X2259407Y347529D01*
Y345530D01*
X2258407Y344530D01*
X2256408D01*
X2255408Y345530D01*
X2261406Y344530D02*
X2263405D01*
X2262406D01*
Y350528D01*
X2261406Y349528D01*
X2033510Y383900D02*
Y389898D01*
X2036509D01*
X2037509Y388898D01*
Y386899D01*
X2036509Y385899D01*
X2033510D01*
X2035509D02*
X2037509Y383900D01*
X2039508D02*
X2041507D01*
X2040508D01*
Y389898D01*
X2039508Y388898D01*
X2048505Y389898D02*
X2044506D01*
Y386899D01*
X2046506Y387899D01*
X2047505D01*
X2048505Y386899D01*
Y384900D01*
X2047505Y383900D01*
X2045506D01*
X2044506Y384900D01*
X2043670Y301350D02*
X2037672D01*
Y304349D01*
X2038672Y305349D01*
X2040671D01*
X2041671Y304349D01*
Y301350D01*
Y303349D02*
X2043670Y305349D01*
Y307348D02*
Y309347D01*
Y308348D01*
X2037672D01*
X2038672Y307348D01*
X2043670Y315345D02*
X2037672D01*
X2040671Y312346D01*
Y316345D01*
X2012188Y532892D02*
Y538890D01*
X2015187D01*
X2016187Y537890D01*
Y535891D01*
X2015187Y534891D01*
X2012188D01*
X2014187D02*
X2016187Y532892D01*
X2018186D02*
X2020185D01*
X2019186D01*
Y538890D01*
X2018186Y537890D01*
X2023184D02*
X2024184Y538890D01*
X2026183D01*
X2027183Y537890D01*
Y536891D01*
X2026183Y535891D01*
X2025184D01*
X2026183D01*
X2027183Y534891D01*
Y533892D01*
X2026183Y532892D01*
X2024184D01*
X2023184Y533892D01*
X2037320Y474070D02*
X2031322D01*
Y477069D01*
X2032322Y478069D01*
X2034321D01*
X2035321Y477069D01*
Y474070D01*
Y476069D02*
X2037320Y478069D01*
Y480068D02*
Y482067D01*
Y481068D01*
X2031322D01*
X2032322Y480068D01*
X2037320Y489065D02*
Y485066D01*
X2033321Y489065D01*
X2032322D01*
X2031322Y488065D01*
Y486066D01*
X2032322Y485066D01*
X1972550Y533760D02*
Y539758D01*
X1975549D01*
X1976549Y538758D01*
Y536759D01*
X1975549Y535759D01*
X1972550D01*
X1974549D02*
X1976549Y533760D01*
X1978548D02*
X1980547D01*
X1979548D01*
Y539758D01*
X1978548Y538758D01*
X1983546D02*
X1984546Y539758D01*
X1986546D01*
X1987545Y538758D01*
Y534760D01*
X1986546Y533760D01*
X1984546D01*
X1983546Y534760D01*
Y538758D01*
X2127490Y352150D02*
Y358148D01*
X2130489D01*
X2131489Y357148D01*
Y355149D01*
X2130489Y354149D01*
X2127490D01*
X2129489D02*
X2131489Y352150D01*
X2133488Y353150D02*
X2134488Y352150D01*
X2136487D01*
X2137487Y353150D01*
Y357148D01*
X2136487Y358148D01*
X2134488D01*
X2133488Y357148D01*
Y356149D01*
X2134488Y355149D01*
X2137487D01*
X1959850Y652788D02*
Y646790D01*
X1963849D01*
X1969847Y652788D02*
X1965848D01*
Y649789D01*
X1967847Y650789D01*
X1968847D01*
X1969847Y649789D01*
Y647790D01*
X1968847Y646790D01*
X1966848D01*
X1965848Y647790D01*
X1953689Y486688D02*
X1952689Y487688D01*
X1950690D01*
X1949690Y486688D01*
Y482690D01*
X1950690Y481690D01*
X1952689D01*
X1953689Y482690D01*
Y484689D01*
X1951689D01*
X1959687Y481690D02*
X1955688D01*
X1959687Y485689D01*
Y486688D01*
X1958687Y487688D01*
X1956688D01*
X1955688Y486688D01*
X1928289Y570508D02*
X1927289Y571508D01*
X1925290D01*
X1924290Y570508D01*
Y566510D01*
X1925290Y565510D01*
X1927289D01*
X1928289Y566510D01*
Y568509D01*
X1926289D01*
X1930288Y565510D02*
X1932287D01*
X1931288D01*
Y571508D01*
X1930288Y570508D01*
X2034862Y260899D02*
X2033862Y259899D01*
Y257900D01*
X2034862Y256900D01*
X2038860D01*
X2039860Y257900D01*
Y259899D01*
X2038860Y260899D01*
X2039860Y265897D02*
X2033862D01*
X2036861Y262898D01*
Y266897D01*
X2034862Y268896D02*
X2033862Y269896D01*
Y271895D01*
X2034862Y272895D01*
X2035861D01*
X2036861Y271895D01*
Y270896D01*
Y271895D01*
X2037861Y272895D01*
X2038860D01*
X2039860Y271895D01*
Y269896D01*
X2038860Y268896D01*
X2229172Y225339D02*
X2228172Y224339D01*
Y222340D01*
X2229172Y221340D01*
X2233170D01*
X2234170Y222340D01*
Y224339D01*
X2233170Y225339D01*
X2234170Y230337D02*
X2228172D01*
X2231171Y227338D01*
Y231337D01*
X2234170Y233336D02*
Y235336D01*
Y234336D01*
X2228172D01*
X2229172Y233336D01*
X2176461Y293288D02*
X2175461Y294288D01*
X2173462D01*
X2172462Y293288D01*
Y289290D01*
X2173462Y288290D01*
X2175461D01*
X2176461Y289290D01*
X2181459Y288290D02*
Y294288D01*
X2178460Y291289D01*
X2182459D01*
X2184458Y293288D02*
X2185458Y294288D01*
X2187457D01*
X2188457Y293288D01*
Y289290D01*
X2187457Y288290D01*
X2185458D01*
X2184458Y289290D01*
Y293288D01*
X1985439Y443508D02*
X1984439Y444508D01*
X1982440D01*
X1981440Y443508D01*
Y439510D01*
X1982440Y438510D01*
X1984439D01*
X1985439Y439510D01*
X1987438Y438510D02*
X1989437D01*
X1988438D01*
Y444508D01*
X1987438Y443508D01*
X1992436D02*
X1993436Y444508D01*
X1995435D01*
X1996435Y443508D01*
Y442509D01*
X1995435Y441509D01*
X1996435Y440509D01*
Y439510D01*
X1995435Y438510D01*
X1993436D01*
X1992436Y439510D01*
Y440509D01*
X1993436Y441509D01*
X1992436Y442509D01*
Y443508D01*
X1993436Y441509D02*
X1995435D01*
X2033699Y442238D02*
X2032699Y443238D01*
X2030700D01*
X2029700Y442238D01*
Y438240D01*
X2030700Y437240D01*
X2032699D01*
X2033699Y438240D01*
X2035698Y437240D02*
X2037697D01*
X2036698D01*
Y443238D01*
X2035698Y442238D01*
X2040696Y443238D02*
X2044695D01*
Y442238D01*
X2040696Y438240D01*
Y437240D01*
X2135299Y390168D02*
X2134299Y391168D01*
X2132300D01*
X2131300Y390168D01*
Y386170D01*
X2132300Y385170D01*
X2134299D01*
X2135299Y386170D01*
X2137298Y385170D02*
X2139297D01*
X2138298D01*
Y391168D01*
X2137298Y390168D01*
X2146295Y391168D02*
X2144296Y390168D01*
X2142296Y388169D01*
Y386170D01*
X2143296Y385170D01*
X2145296D01*
X2146295Y386170D01*
Y387169D01*
X2145296Y388169D01*
X2142296D01*
X1929452Y612689D02*
X1928452Y611689D01*
Y609690D01*
X1929452Y608690D01*
X1933450D01*
X1934450Y609690D01*
Y611689D01*
X1933450Y612689D01*
X1934450Y614688D02*
Y616687D01*
Y615688D01*
X1928452D01*
X1929452Y614688D01*
X1928452Y623685D02*
Y619686D01*
X1931451D01*
X1930451Y621686D01*
Y622685D01*
X1931451Y623685D01*
X1933450D01*
X1934450Y622685D01*
Y620686D01*
X1933450Y619686D01*
X1871032Y612689D02*
X1870032Y611689D01*
Y609690D01*
X1871032Y608690D01*
X1875030D01*
X1876030Y609690D01*
Y611689D01*
X1875030Y612689D01*
X1876030Y614688D02*
Y616687D01*
Y615688D01*
X1870032D01*
X1871032Y614688D01*
Y619686D02*
X1870032Y620686D01*
Y622685D01*
X1871032Y623685D01*
X1872031D01*
X1873031Y622685D01*
Y621686D01*
Y622685D01*
X1874031Y623685D01*
X1875030D01*
X1876030Y622685D01*
Y620686D01*
X1875030Y619686D01*
X1873758Y379124D02*
X1877757Y373126D01*
Y379124D02*
X1873758Y373126D01*
X1879756Y378124D02*
X1880756Y379124D01*
X1882755D01*
X1883755Y378124D01*
Y377125D01*
X1882755Y376125D01*
X1881755D01*
X1882755D01*
X1883755Y375125D01*
Y374126D01*
X1882755Y373126D01*
X1880756D01*
X1879756Y374126D01*
X1996680Y616310D02*
Y622308D01*
X1999679D01*
X2000679Y621308D01*
Y619309D01*
X1999679Y618309D01*
X1996680D01*
X1998679D02*
X2000679Y616310D01*
X2002678D02*
X2004677D01*
X2003678D01*
Y622308D01*
X2002678Y621308D01*
X2007676D02*
X2008676Y622308D01*
X2010676D01*
X2011675Y621308D01*
Y620309D01*
X2010676Y619309D01*
X2011675Y618309D01*
Y617310D01*
X2010676Y616310D01*
X2008676D01*
X2007676Y617310D01*
Y618309D01*
X2008676Y619309D01*
X2007676Y620309D01*
Y621308D01*
X2008676Y619309D02*
X2010676D01*
X2017000Y616310D02*
Y622308D01*
X2019999D01*
X2020999Y621308D01*
Y619309D01*
X2019999Y618309D01*
X2017000D01*
X2018999D02*
X2020999Y616310D01*
X2022998D02*
X2024997D01*
X2023998D01*
Y622308D01*
X2022998Y621308D01*
X2027996Y617310D02*
X2028996Y616310D01*
X2030995D01*
X2031995Y617310D01*
Y621308D01*
X2030995Y622308D01*
X2028996D01*
X2027996Y621308D01*
Y620309D01*
X2028996Y619309D01*
X2031995D01*
X2037320Y616310D02*
Y622308D01*
X2040319D01*
X2041319Y621308D01*
Y619309D01*
X2040319Y618309D01*
X2037320D01*
X2039319D02*
X2041319Y616310D01*
X2047317D02*
X2043318D01*
X2047317Y620309D01*
Y621308D01*
X2046317Y622308D01*
X2044318D01*
X2043318Y621308D01*
X2049316D02*
X2050316Y622308D01*
X2052315D01*
X2053315Y621308D01*
Y617310D01*
X2052315Y616310D01*
X2050316D01*
X2049316Y617310D01*
Y621308D01*
X2067800Y642980D02*
X2061802D01*
Y645979D01*
X2062802Y646979D01*
X2064801D01*
X2065801Y645979D01*
Y642980D01*
Y644979D02*
X2067800Y646979D01*
Y652977D02*
Y648978D01*
X2063801Y652977D01*
X2062802D01*
X2061802Y651977D01*
Y649978D01*
X2062802Y648978D01*
X2067800Y658975D02*
Y654976D01*
X2063801Y658975D01*
X2062802D01*
X2061802Y657975D01*
Y655976D01*
X2062802Y654976D01*
X2086640Y612470D02*
Y607472D01*
X2087640Y606472D01*
X2089639D01*
X2090639Y607472D01*
Y612470D01*
X2095637Y606472D02*
Y612470D01*
X2092638Y609471D01*
X2096637D01*
X2268542Y649519D02*
X2267542Y648519D01*
Y646520D01*
X2268542Y645520D01*
X2272540D01*
X2273540Y646520D01*
Y648519D01*
X2272540Y649519D01*
X2273540Y655517D02*
Y651518D01*
X2269541Y655517D01*
X2268542D01*
X2267542Y654517D01*
Y652518D01*
X2268542Y651518D01*
X2267542Y661515D02*
X2268542Y659516D01*
X2270541Y657516D01*
X2272540D01*
X2273540Y658516D01*
Y660515D01*
X2272540Y661515D01*
X2271541D01*
X2270541Y660515D01*
Y657516D01*
X2352280Y379738D02*
X2356279Y373740D01*
Y379738D02*
X2352280Y373740D01*
X2358278Y374740D02*
X2359278Y373740D01*
X2361277D01*
X2362277Y374740D01*
Y378738D01*
X2361277Y379738D01*
X2359278D01*
X2358278Y378738D01*
Y377739D01*
X2359278Y376739D01*
X2362277D01*
X2352280Y680728D02*
X2356279Y674730D01*
Y680728D02*
X2352280Y674730D01*
X2358278Y679728D02*
X2359278Y680728D01*
X2361277D01*
X2362277Y679728D01*
Y678729D01*
X2361277Y677729D01*
X2362277Y676729D01*
Y675730D01*
X2361277Y674730D01*
X2359278D01*
X2358278Y675730D01*
Y676729D01*
X2359278Y677729D01*
X2358278Y678729D01*
Y679728D01*
X2359278Y677729D02*
X2361277D01*
X2352280Y480068D02*
X2356279Y474070D01*
Y480068D02*
X2352280Y474070D01*
X2358278Y480068D02*
X2362277D01*
Y479068D01*
X2358278Y475070D01*
Y474070D01*
X2406650Y374298D02*
X2410649Y368300D01*
Y374298D02*
X2406650Y368300D01*
X2412648D02*
X2414647D01*
X2413648D01*
Y374298D01*
X2412648Y373298D01*
X2417646D02*
X2418646Y374298D01*
X2420645D01*
X2421645Y373298D01*
Y369300D01*
X2420645Y368300D01*
X2418646D01*
X2417646Y369300D01*
Y373298D01*
X3297936Y757838D02*
X3301935Y751840D01*
Y757838D02*
X3297936Y751840D01*
X3303934D02*
X3305934D01*
X3304934D01*
Y757838D01*
X3303934Y756838D01*
X3312931Y751840D02*
X3308932D01*
X3312931Y755839D01*
Y756838D01*
X3311931Y757838D01*
X3309932D01*
X3308932Y756838D01*
X1983980Y641710D02*
X1977982D01*
Y644709D01*
X1978982Y645709D01*
X1980981D01*
X1981981Y644709D01*
Y641710D01*
Y643709D02*
X1983980Y645709D01*
Y647708D02*
Y649707D01*
Y648708D01*
X1977982D01*
X1978982Y647708D01*
X1977982Y652706D02*
Y656705D01*
X1978982D01*
X1982980Y652706D01*
X1983980D01*
D16*
X3249778Y444290D02*
Y456990D01*
X3281528Y444290D02*
Y456990D01*
X3262478Y458260D02*
X3268828D01*
X3262478Y443020D02*
X3268828D01*
X2824170Y269623D02*
Y282323D01*
X2855920Y269623D02*
Y282323D01*
X2836870Y283593D02*
X2843220D01*
X2836870Y268353D02*
X2843220D01*
X2824170Y288290D02*
Y300990D01*
X2855920Y288290D02*
Y300990D01*
X2836870Y302260D02*
X2843220D01*
X2836870Y287020D02*
X2843220D01*
X2807920Y288290D02*
Y300990D01*
X2776170Y288290D02*
Y300990D01*
X2788870Y287020D02*
X2795220D01*
X2788870Y302260D02*
X2795220D01*
X2807920Y269623D02*
Y282323D01*
X2776170Y269623D02*
Y282323D01*
X2788870Y268353D02*
X2795220D01*
X2788870Y283593D02*
X2795220D01*
X2776170Y250957D02*
Y263657D01*
X2807920Y250957D02*
Y263657D01*
X2788870Y264927D02*
X2795220D01*
X2788870Y249687D02*
X2795220D01*
X2776170Y232290D02*
Y244990D01*
X2807920Y232290D02*
Y244990D01*
X2788870Y246260D02*
X2795220D01*
X2788870Y231020D02*
X2795220D01*
X2703170Y302260D02*
X2715870D01*
X2703170Y270510D02*
X2715870D01*
X2717140Y283210D02*
Y289560D01*
X2701900Y283210D02*
Y289560D01*
X2614870Y282290D02*
Y294990D01*
X2583120Y282290D02*
Y294990D01*
X2595820Y281020D02*
X2602170D01*
X2595820Y296260D02*
X2602170D01*
X2534870Y615290D02*
Y627990D01*
X2503120Y615290D02*
Y627990D01*
X2515820Y614020D02*
X2522170D01*
X2515820Y629260D02*
X2522170D01*
X2534870Y593290D02*
Y605990D01*
X2503120Y593290D02*
Y605990D01*
X2515820Y592020D02*
X2522170D01*
X2515820Y607260D02*
X2522170D01*
X2534870Y572290D02*
Y584990D01*
X2503120Y572290D02*
Y584990D01*
X2515820Y571020D02*
X2522170D01*
X2515820Y586260D02*
X2522170D01*
X2534870Y550290D02*
Y562990D01*
X2503120Y550290D02*
Y562990D01*
X2515820Y549020D02*
X2522170D01*
X2515820Y564260D02*
X2522170D01*
X2534870Y527290D02*
Y539990D01*
X2503120Y527290D02*
Y539990D01*
X2515820Y526020D02*
X2522170D01*
X2515820Y541260D02*
X2522170D01*
X2534870Y505290D02*
Y517990D01*
X2503120Y505290D02*
Y517990D01*
X2515820Y504020D02*
X2522170D01*
X2515820Y519260D02*
X2522170D01*
X2534870Y483290D02*
Y495990D01*
X2503120Y483290D02*
Y495990D01*
X2515820Y482020D02*
X2522170D01*
X2515820Y497260D02*
X2522170D01*
X2534870Y462290D02*
Y474990D01*
X2503120Y462290D02*
Y474990D01*
X2515820Y461020D02*
X2522170D01*
X2515820Y476260D02*
X2522170D01*
X2534870Y441290D02*
Y453990D01*
X2503120Y441290D02*
Y453990D01*
X2515820Y440020D02*
X2522170D01*
X2515820Y455260D02*
X2522170D01*
X2534870Y421290D02*
Y433990D01*
X2503120Y421290D02*
Y433990D01*
X2515820Y420020D02*
X2522170D01*
X2515820Y435260D02*
X2522170D01*
X2534870Y399290D02*
Y411990D01*
X2503120Y399290D02*
Y411990D01*
X2515820Y398020D02*
X2522170D01*
X2515820Y413260D02*
X2522170D01*
X2534870Y379290D02*
Y391990D01*
X2503120Y379290D02*
Y391990D01*
X2515820Y378020D02*
X2522170D01*
X2515820Y393260D02*
X2522170D01*
X2498870Y389290D02*
Y401990D01*
X2467120Y389290D02*
Y401990D01*
X2479820Y388020D02*
X2486170D01*
X2479820Y403260D02*
X2486170D01*
X2498870Y410290D02*
Y422990D01*
X2467120Y410290D02*
Y422990D01*
X2479820Y409020D02*
X2486170D01*
X2479820Y424260D02*
X2486170D01*
X2498870Y430290D02*
Y442990D01*
X2467120Y430290D02*
Y442990D01*
X2479820Y429020D02*
X2486170D01*
X2479820Y444260D02*
X2486170D01*
X2497870Y452290D02*
Y464990D01*
X2466120Y452290D02*
Y464990D01*
X2478820Y451020D02*
X2485170D01*
X2478820Y466260D02*
X2485170D01*
X2498870Y472290D02*
Y484990D01*
X2467120Y472290D02*
Y484990D01*
X2479820Y471020D02*
X2486170D01*
X2479820Y486260D02*
X2486170D01*
X2497870Y495290D02*
Y507990D01*
X2466120Y495290D02*
Y507990D01*
X2478820Y494020D02*
X2485170D01*
X2478820Y509260D02*
X2485170D01*
X2497870Y517290D02*
Y529990D01*
X2466120Y517290D02*
Y529990D01*
X2478820Y516020D02*
X2485170D01*
X2478820Y531260D02*
X2485170D01*
X2497870Y539290D02*
Y551990D01*
X2466120Y539290D02*
Y551990D01*
X2478820Y538020D02*
X2485170D01*
X2478820Y553260D02*
X2485170D01*
X2497870Y561290D02*
Y573990D01*
X2466120Y561290D02*
Y573990D01*
X2478820Y560020D02*
X2485170D01*
X2478820Y575260D02*
X2485170D01*
X2497870Y583290D02*
Y595990D01*
X2466120Y583290D02*
Y595990D01*
X2478820Y582020D02*
X2485170D01*
X2478820Y597260D02*
X2485170D01*
X2498870Y605920D02*
Y618620D01*
X2467120Y605920D02*
Y618620D01*
X2479820Y604650D02*
X2486170D01*
X2479820Y619890D02*
X2486170D01*
X3249778Y521920D02*
Y534620D01*
X3281528Y521920D02*
Y534620D01*
X3262478Y535890D02*
X3268828D01*
X3262478Y520650D02*
X3268828D01*
X3262478Y654020D02*
X3268828D01*
X3262478Y669260D02*
X3268828D01*
X3281528Y655290D02*
Y667990D01*
X3249778Y655290D02*
Y667990D01*
X3262478Y576020D02*
X3268828D01*
X3262478Y591260D02*
X3268828D01*
X3281528Y577290D02*
Y589990D01*
X3249778Y577290D02*
Y589990D01*
X1951820Y643260D02*
X1958170D01*
X1951820Y628020D02*
X1958170D01*
X1939120Y629290D02*
Y641990D01*
X1970870Y629290D02*
Y641990D01*
X1985870Y514020D02*
X1992220D01*
X1985870Y529260D02*
X1992220D01*
X2004920Y515290D02*
Y527990D01*
X1973170Y515290D02*
Y527990D01*
X2143820Y380260D02*
X2150170D01*
X2143820Y365020D02*
X2150170D01*
X2131120Y366290D02*
Y378990D01*
X2162870Y366290D02*
Y378990D01*
X2189170Y372990D02*
X2201870D01*
X2189170Y341240D02*
X2201870D01*
X2203140Y353940D02*
Y360290D01*
X2187900Y353940D02*
Y360290D01*
X2172158Y329715D02*
Y339715D01*
X2201770Y329640D02*
Y339640D01*
X2184520Y340640D02*
X2189520D01*
X2184520Y328640D02*
X2189520D01*
X2123170Y333290D02*
Y345990D01*
X2154920Y333290D02*
Y345990D01*
X2135870Y347260D02*
X2142220D01*
X2135870Y332020D02*
X2142220D01*
X2033170Y396290D02*
Y408990D01*
X2064920Y396290D02*
Y408990D01*
X2045870Y410260D02*
X2052220D01*
X2045870Y395020D02*
X2052220D01*
X2026140Y424990D02*
Y431340D01*
X2010900Y424990D02*
Y431340D01*
X2012170Y444040D02*
X2024870D01*
X2012170Y412290D02*
X2024870D01*
X2027900Y334940D02*
Y341290D01*
X2043140Y334940D02*
Y341290D01*
X2029170Y322240D02*
X2041870D01*
X2029170Y353990D02*
X2041870D01*
X2026170Y220290D02*
X2038870D01*
X2026170Y252040D02*
X2038870D01*
X2024900Y232990D02*
Y239340D01*
X2040140Y232990D02*
Y239340D01*
X2210170Y220290D02*
X2222870D01*
X2210170Y252040D02*
X2222870D01*
X2208900Y232990D02*
Y239340D01*
X2224140Y232990D02*
Y239340D01*
X2296482Y293640D02*
X2301482D01*
X2296482Y305640D02*
X2301482D01*
X2313732Y294640D02*
Y304640D01*
X2284120Y294715D02*
Y304715D01*
X2296482Y273640D02*
X2301482D01*
X2296482Y285640D02*
X2301482D01*
X2313732Y274640D02*
Y284640D01*
X2284120Y274715D02*
Y284715D01*
X2296482Y253640D02*
X2301482D01*
X2296482Y265640D02*
X2301482D01*
X2313732Y254640D02*
Y264640D01*
X2284120Y254715D02*
Y264715D01*
X2296482Y233640D02*
X2301482D01*
X2296482Y245640D02*
X2301482D01*
X2313732Y234640D02*
Y244640D01*
X2284120Y234715D02*
Y244715D01*
X2249158Y234715D02*
Y244715D01*
X2278770Y234640D02*
Y244640D01*
X2261520Y245640D02*
X2266520D01*
X2261520Y233640D02*
X2266520D01*
X2250158Y254715D02*
Y264715D01*
X2279770Y254640D02*
Y264640D01*
X2262520Y265640D02*
X2267520D01*
X2262520Y253640D02*
X2267520D01*
X2249158Y274715D02*
Y284715D01*
X2278770Y274640D02*
Y284640D01*
X2261520Y285640D02*
X2266520D01*
X2261520Y273640D02*
X2266520D01*
X2249158Y294715D02*
Y304715D01*
X2278770Y294640D02*
Y304640D01*
X2261520Y305640D02*
X2266520D01*
X2261520Y293640D02*
X2266520D01*
X2030520Y639640D02*
Y644640D01*
X2042520Y639640D02*
Y644640D01*
X2031520Y627390D02*
X2041520D01*
X2031595Y657002D02*
X2041595D01*
X2016595Y657002D02*
X2026595D01*
X2016520Y627390D02*
X2026520D01*
X2027520Y639640D02*
Y644640D01*
X2015520Y639640D02*
Y644640D01*
X2001520Y639640D02*
Y644640D01*
X2013520Y639640D02*
Y644640D01*
X2002520Y627390D02*
X2012520D01*
X2002595Y657002D02*
X2012595D01*
X1988595Y657002D02*
X1998595D01*
X1988520Y627390D02*
X1998520D01*
X1999520Y639640D02*
Y644640D01*
X1987520Y639640D02*
Y644640D01*
X2011158Y580715D02*
Y590715D01*
X2040770Y580640D02*
Y590640D01*
X2023520Y591640D02*
X2028520D01*
X2023520Y579640D02*
X2028520D01*
X2011158Y562715D02*
Y572715D01*
X2040770Y562640D02*
Y572640D01*
X2023520Y573640D02*
X2028520D01*
X2023520Y561640D02*
X2028520D01*
X2023520Y597640D02*
X2028520D01*
X2023520Y609640D02*
X2028520D01*
X2040770Y598640D02*
Y608640D01*
X2011158Y598715D02*
Y608715D01*
X2293870Y411020D02*
X2300220D01*
X2293870Y426260D02*
X2300220D01*
X2312920Y412290D02*
Y424990D01*
X2281170Y412290D02*
Y424990D01*
X2319140Y506990D02*
Y513340D01*
X2303900Y506990D02*
Y513340D01*
X2305170Y526040D02*
X2317870D01*
X2305170Y494290D02*
X2317870D01*
X2300445Y583278D02*
X2310445D01*
X2300520Y612890D02*
X2310520D01*
X2299520Y595640D02*
Y600640D01*
X2311520Y595640D02*
Y600640D01*
X2296170Y661990D02*
X2308870D01*
X2296170Y630240D02*
X2308870D01*
X2310140Y642940D02*
Y649290D01*
X2294900Y642940D02*
Y649290D01*
X2277900Y642940D02*
Y649290D01*
X2293140Y642940D02*
Y649290D01*
X2279170Y630240D02*
X2291870D01*
X2279170Y661990D02*
X2291870D01*
X2289520Y677640D02*
X2294520D01*
X2289520Y689640D02*
X2294520D01*
X2306770Y678640D02*
Y688640D01*
X2277158Y678715D02*
Y688715D01*
Y692715D02*
Y702715D01*
X2306770Y692640D02*
Y702640D01*
X2289520Y703640D02*
X2294520D01*
X2289520Y691640D02*
X2294520D01*
X2177870Y688020D02*
X2184220D01*
X2177870Y703260D02*
X2184220D01*
X2196920Y689290D02*
Y701990D01*
X2165170Y689290D02*
Y701990D01*
X2137520Y647640D02*
X2142520D01*
X2137520Y659640D02*
X2142520D01*
X2154770Y648640D02*
Y658640D01*
X2125158Y648715D02*
Y658715D01*
Y662715D02*
Y672715D01*
X2154770Y662640D02*
Y672640D01*
X2137520Y673640D02*
X2142520D01*
X2137520Y661640D02*
X2142520D01*
X2154882Y676565D02*
Y686565D01*
X2125270Y676640D02*
Y686640D01*
X2137520Y675640D02*
X2142520D01*
X2137520Y687640D02*
X2142520D01*
X2137520Y701640D02*
X2142520D01*
X2137520Y689640D02*
X2142520D01*
X2125270Y690640D02*
Y700640D01*
X2154882Y690565D02*
Y700565D01*
X3268896Y214916D02*
X3269020Y215040D01*
X3268870Y314890D02*
X3269020Y315040D01*
Y360440D01*
X3216300Y315040D02*
Y360440D01*
Y215040D02*
Y315040D01*
X3269020Y215040D02*
Y315040D01*
X3216300Y314890D02*
X3268870D01*
X3216300Y360440D02*
X3269020D01*
X3216300Y214916D02*
X3268896D01*
X2002448Y364679D02*
Y404639D01*
X2002448Y404640D01*
X2022520D01*
X2015065Y364679D02*
X2015110Y364634D01*
X2015116Y364640D01*
X2022520D01*
X2002448Y364679D02*
X2015065D01*
X2022520Y364640D02*
Y404640D01*
X1976448Y364679D02*
Y404639D01*
X1976448Y404640D01*
X1996520D01*
X1989065Y364679D02*
X1989110Y364634D01*
X1989116Y364640D01*
X1996520D01*
X1976448Y364679D02*
X1989065D01*
X1996520Y364640D02*
Y404640D01*
X2010900Y505940D02*
Y512290D01*
X2026140Y505940D02*
Y512290D01*
X2012170Y493240D02*
X2024870D01*
X2012170Y524990D02*
X2024870D01*
X2012170Y488990D02*
X2024870D01*
X2012170Y457240D02*
X2024870D01*
X2026140Y469940D02*
Y476290D01*
X2010900Y469940D02*
Y476290D01*
X1872620Y319290D02*
Y359290D01*
X1872835Y359238D02*
X2021049D01*
X1872620Y223290D02*
X2021620D01*
X1872620Y299290D02*
Y319290D01*
X1877689Y314297D02*
X2021063D01*
X1872620Y295670D02*
Y299290D01*
X1872614Y223285D02*
Y295643D01*
X2021620Y319328D02*
Y359290D01*
Y223290D02*
Y319328D01*
X1872658Y314297D02*
X1877689D01*
X1872620Y295670D02*
X1872630Y295659D01*
X1872614Y295643D02*
X1872630Y295659D01*
X2044520Y639640D02*
Y644640D01*
X2056520Y639640D02*
Y644640D01*
X2045520Y627390D02*
X2055520D01*
X2045595Y657002D02*
X2055595D01*
X2320777Y213896D02*
X2398227D01*
X2320777Y405316D02*
X2320935Y405474D01*
X2398249Y405619D02*
X2398270Y405640D01*
X2320770Y405640D02*
X2320935Y405474D01*
X2321020Y405890D02*
X2398020D01*
X2320770Y405640D02*
X2321020Y405890D01*
X2320777Y213896D02*
Y405316D01*
X2398249Y213918D02*
Y405619D01*
X2320777Y513896D02*
X2398227D01*
X2320777Y705316D02*
X2320935Y705474D01*
X2398249Y705619D02*
X2398270Y705640D01*
X2320770Y705640D02*
X2320935Y705474D01*
X2321020Y705890D02*
X2398020D01*
X2320770Y705640D02*
X2321020Y705890D01*
X2320777Y513896D02*
Y705316D01*
X2398249Y513918D02*
Y705619D01*
X2321014Y505890D02*
X2398014D01*
X2320770Y413406D02*
X2398248D01*
X2398264Y413390D02*
Y505640D01*
X2398248Y413406D02*
X2398264Y413390D01*
X2320770Y413406D02*
Y505646D01*
X2405320Y320440D02*
Y360440D01*
X2405535Y360388D02*
X2553749D01*
X2405320Y224440D02*
X2554320D01*
X2405320Y300440D02*
Y320440D01*
X2410389Y315447D02*
X2553763D01*
X2405320Y296820D02*
Y300440D01*
X2405314Y224435D02*
Y296793D01*
X2554320Y320478D02*
Y360440D01*
Y224440D02*
Y320478D01*
X2405358Y315447D02*
X2410389D01*
X2405320Y296820D02*
X2405331Y296809D01*
X2405314Y296793D02*
X2405331Y296809D01*
X3303520Y208640D02*
X3343520D01*
X3303520Y708640D02*
X3343520D01*
Y208640D02*
Y708640D01*
X3303520Y208640D02*
Y708640D01*
D17*
X1977440Y560020D02*
Y575260D01*
X2007920Y560020D02*
Y575260D01*
X1997760D02*
X2007920D01*
X1977440Y560020D02*
X1987600D01*
X1997760D02*
X2007920D01*
X1977440Y575260D02*
X1987600D01*
X1977440Y578020D02*
Y593260D01*
X2007920Y578020D02*
Y593260D01*
X1997760D02*
X2007920D01*
X1977440Y578020D02*
X1987600D01*
X1997760D02*
X2007920D01*
X1977440Y593260D02*
X1987600D01*
X1977440Y596020D02*
Y611260D01*
X2007920Y596020D02*
Y611260D01*
X1997760D02*
X2007920D01*
X1977440Y596020D02*
X1987600D01*
X1997760D02*
X2007920D01*
X1977440Y611260D02*
X1987600D01*
M02*
