G04*
G04 #@! TF.GenerationSoftware,Altium Limited,Altium Designer,20.0.2 (26)*
G04*
G04 Layer_Color=128*
%FSLAX44Y44*%
%MOMM*%
G71*
G01*
G75*
%ADD18R,0.8000X1.3000*%
%ADD21R,2.8000X2.0000*%
%ADD25R,1.3000X0.8000*%
G04:AMPARAMS|DCode=31|XSize=0.8mm|YSize=1.3mm|CornerRadius=0.2mm|HoleSize=0mm|Usage=FLASHONLY|Rotation=180.000|XOffset=0mm|YOffset=0mm|HoleType=Round|Shape=RoundedRectangle|*
%AMROUNDEDRECTD31*
21,1,0.8000,0.9000,0,0,180.0*
21,1,0.4000,1.3000,0,0,180.0*
1,1,0.4000,-0.2000,0.4500*
1,1,0.4000,0.2000,0.4500*
1,1,0.4000,0.2000,-0.4500*
1,1,0.4000,-0.2000,-0.4500*
%
%ADD31ROUNDEDRECTD31*%
G04:AMPARAMS|DCode=34|XSize=0.8mm|YSize=1.3mm|CornerRadius=0.2mm|HoleSize=0mm|Usage=FLASHONLY|Rotation=270.000|XOffset=0mm|YOffset=0mm|HoleType=Round|Shape=RoundedRectangle|*
%AMROUNDEDRECTD34*
21,1,0.8000,0.9000,0,0,270.0*
21,1,0.4000,1.3000,0,0,270.0*
1,1,0.4000,-0.4500,-0.2000*
1,1,0.4000,-0.4500,0.2000*
1,1,0.4000,0.4500,0.2000*
1,1,0.4000,0.4500,-0.2000*
%
%ADD34ROUNDEDRECTD34*%
G04:AMPARAMS|DCode=35|XSize=0.8mm|YSize=1mm|CornerRadius=0.2mm|HoleSize=0mm|Usage=FLASHONLY|Rotation=0.000|XOffset=0mm|YOffset=0mm|HoleType=Round|Shape=RoundedRectangle|*
%AMROUNDEDRECTD35*
21,1,0.8000,0.6000,0,0,0.0*
21,1,0.4000,1.0000,0,0,0.0*
1,1,0.4000,0.2000,-0.3000*
1,1,0.4000,-0.2000,-0.3000*
1,1,0.4000,-0.2000,0.3000*
1,1,0.4000,0.2000,0.3000*
%
%ADD35ROUNDEDRECTD35*%
G04:AMPARAMS|DCode=38|XSize=0.8mm|YSize=1mm|CornerRadius=0.2mm|HoleSize=0mm|Usage=FLASHONLY|Rotation=270.000|XOffset=0mm|YOffset=0mm|HoleType=Round|Shape=RoundedRectangle|*
%AMROUNDEDRECTD38*
21,1,0.8000,0.6000,0,0,270.0*
21,1,0.4000,1.0000,0,0,270.0*
1,1,0.4000,-0.3000,-0.2000*
1,1,0.4000,-0.3000,0.2000*
1,1,0.4000,0.3000,0.2000*
1,1,0.4000,0.3000,-0.2000*
%
%ADD38ROUNDEDRECTD38*%
G04:AMPARAMS|DCode=40|XSize=2.54mm|YSize=0.9144mm|CornerRadius=0mm|HoleSize=0mm|Usage=FLASHONLY|Rotation=90.000|XOffset=0mm|YOffset=0mm|HoleType=Round|Shape=Octagon|*
%AMOCTAGOND40*
4,1,8,0.2286,1.2700,-0.2286,1.2700,-0.4572,1.0414,-0.4572,-1.0414,-0.2286,-1.2700,0.2286,-1.2700,0.4572,-1.0414,0.4572,1.0414,0.2286,1.2700,0.0*
%
%ADD40OCTAGOND40*%

%ADD48C,1.0000*%
%ADD117R,1.0000X0.8000*%
%ADD118R,0.6000X0.9000*%
G04:AMPARAMS|DCode=119|XSize=0.9mm|YSize=0.6mm|CornerRadius=0.15mm|HoleSize=0mm|Usage=FLASHONLY|Rotation=90.000|XOffset=0mm|YOffset=0mm|HoleType=Round|Shape=RoundedRectangle|*
%AMROUNDEDRECTD119*
21,1,0.9000,0.3000,0,0,90.0*
21,1,0.6000,0.6000,0,0,90.0*
1,1,0.3000,0.1500,0.3000*
1,1,0.3000,0.1500,-0.3000*
1,1,0.3000,-0.1500,-0.3000*
1,1,0.3000,-0.1500,0.3000*
%
%ADD119ROUNDEDRECTD119*%
%ADD120R,0.9500X0.6000*%
%ADD121R,2.0000X2.0000*%
G04:AMPARAMS|DCode=122|XSize=2mm|YSize=2mm|CornerRadius=0.5mm|HoleSize=0mm|Usage=FLASHONLY|Rotation=270.000|XOffset=0mm|YOffset=0mm|HoleType=Round|Shape=RoundedRectangle|*
%AMROUNDEDRECTD122*
21,1,2.0000,1.0000,0,0,270.0*
21,1,1.0000,2.0000,0,0,270.0*
1,1,1.0000,-0.5000,-0.5000*
1,1,1.0000,-0.5000,0.5000*
1,1,1.0000,0.5000,0.5000*
1,1,1.0000,0.5000,-0.5000*
%
%ADD122ROUNDEDRECTD122*%
%ADD123R,2.5000X2.3000*%
%ADD124R,0.7000X1.6000*%
%ADD125R,1.2000X1.4000*%
%ADD126R,1.6000X1.4000*%
%ADD127R,1.2000X2.0000*%
D18*
X2839520Y628640D02*
D03*
X2858520D02*
D03*
X3038520Y321640D02*
D03*
X3019520D02*
D03*
Y339640D02*
D03*
X3038520D02*
D03*
X3037520Y303640D02*
D03*
X3018520D02*
D03*
X3037520Y285640D02*
D03*
X3018520D02*
D03*
X3037520Y357640D02*
D03*
X3018520D02*
D03*
X3112520Y296640D02*
D03*
X3131520D02*
D03*
X3113520Y329640D02*
D03*
X3132520D02*
D03*
X3113520Y354640D02*
D03*
X3132520D02*
D03*
X3114520Y391640D02*
D03*
X3133520D02*
D03*
X3018470Y431640D02*
D03*
X3037470D02*
D03*
X3037520Y411370D02*
D03*
X3018520D02*
D03*
X3037520Y393640D02*
D03*
X3018520D02*
D03*
X3037520Y375640D02*
D03*
X3018520D02*
D03*
X3275128Y450900D02*
D03*
X3256128D02*
D03*
X3275128Y528270D02*
D03*
X3256128D02*
D03*
X3275128Y661640D02*
D03*
X3256128D02*
D03*
X3275128Y583640D02*
D03*
X3256128D02*
D03*
X2544520Y626640D02*
D03*
X2563520D02*
D03*
X2240520Y329640D02*
D03*
X2259520D02*
D03*
X1906520Y417640D02*
D03*
X1887520D02*
D03*
D21*
X1987520Y230640D02*
D03*
Y267470D02*
D03*
D25*
X2641520Y674640D02*
D03*
Y655640D02*
D03*
X2959520Y676640D02*
D03*
Y657640D02*
D03*
X3001520Y304640D02*
D03*
Y285640D02*
D03*
Y384640D02*
D03*
Y365640D02*
D03*
X3085520Y338640D02*
D03*
Y319640D02*
D03*
D31*
X2071520Y426640D02*
D03*
X2090520D02*
D03*
X2057520Y374640D02*
D03*
X2076520D02*
D03*
X2212520Y348690D02*
D03*
X2231520D02*
D03*
X2306520Y384536D02*
D03*
X2287520D02*
D03*
X2306520Y401536D02*
D03*
X2287520D02*
D03*
Y418536D02*
D03*
X2306520D02*
D03*
X2287520Y435640D02*
D03*
X2306520D02*
D03*
X2313520Y543640D02*
D03*
X2332520D02*
D03*
X2192740Y550640D02*
D03*
X2211740D02*
D03*
X2015520Y567640D02*
D03*
X2034520D02*
D03*
X2055520Y534640D02*
D03*
X2074520D02*
D03*
X1979520Y521640D02*
D03*
X1998520D02*
D03*
X2131520Y631640D02*
D03*
X2112520D02*
D03*
X2078520D02*
D03*
X2097520D02*
D03*
X1956520Y575640D02*
D03*
X1937520D02*
D03*
X1900520D02*
D03*
X1919520D02*
D03*
X2035520Y294640D02*
D03*
X2054520D02*
D03*
Y272640D02*
D03*
X2035520D02*
D03*
X2212520Y366690D02*
D03*
X2231520D02*
D03*
X1906520Y398640D02*
D03*
X1887520D02*
D03*
D34*
X2169520Y497640D02*
D03*
Y478640D02*
D03*
X2185520Y497640D02*
D03*
Y478640D02*
D03*
X2210520D02*
D03*
Y497640D02*
D03*
X2227520Y478640D02*
D03*
Y497640D02*
D03*
X2227520Y441640D02*
D03*
Y460640D02*
D03*
X2210520Y441640D02*
D03*
Y460640D02*
D03*
X2186520D02*
D03*
Y441640D02*
D03*
X2169520Y460640D02*
D03*
Y441640D02*
D03*
X2020520Y238640D02*
D03*
Y257640D02*
D03*
X2249520Y347690D02*
D03*
Y366690D02*
D03*
X2307520Y347640D02*
D03*
Y366640D02*
D03*
X2295520Y526640D02*
D03*
Y545640D02*
D03*
X2072520Y490640D02*
D03*
Y509640D02*
D03*
X2018520Y463640D02*
D03*
Y482640D02*
D03*
X2178520Y347690D02*
D03*
Y366690D02*
D03*
X2195520D02*
D03*
Y347690D02*
D03*
X2092520Y654640D02*
D03*
Y673640D02*
D03*
X2251520Y441640D02*
D03*
Y460640D02*
D03*
Y478640D02*
D03*
Y497640D02*
D03*
X2268520Y441640D02*
D03*
Y460640D02*
D03*
Y478640D02*
D03*
Y497640D02*
D03*
X2156520Y282640D02*
D03*
Y263640D02*
D03*
X2136520D02*
D03*
Y282640D02*
D03*
D35*
X2128520Y474640D02*
D03*
X2111520D02*
D03*
X2119520Y460640D02*
D03*
X2102520D02*
D03*
X2126520Y582640D02*
D03*
X2109520D02*
D03*
Y568640D02*
D03*
X2126520D02*
D03*
X2076520Y563640D02*
D03*
X2059520D02*
D03*
Y550640D02*
D03*
X2076520D02*
D03*
D38*
X2152520Y441640D02*
D03*
Y458640D02*
D03*
X2312520Y519790D02*
D03*
Y502790D02*
D03*
X2053520Y617640D02*
D03*
Y600640D02*
D03*
X2067520D02*
D03*
Y617640D02*
D03*
X2081520D02*
D03*
Y600640D02*
D03*
X2021520Y650640D02*
D03*
Y633640D02*
D03*
X2332520Y519790D02*
D03*
Y502790D02*
D03*
D40*
X2010080Y680700D02*
D03*
X2022780D02*
D03*
X2035480D02*
D03*
X2048180D02*
D03*
D48*
X3242520Y244640D02*
D03*
X1889520Y510640D02*
D03*
X2199520Y244640D02*
D03*
D117*
X2076520Y341640D02*
D03*
Y358640D02*
D03*
X2099520Y371640D02*
D03*
Y388640D02*
D03*
D118*
X2086520Y255640D02*
D03*
Y272640D02*
D03*
X2096520D02*
D03*
X2141520Y300640D02*
D03*
X2151520Y317640D02*
D03*
X2141520D02*
D03*
D119*
X2096520Y255640D02*
D03*
X2151520Y300640D02*
D03*
D120*
X2266520Y348190D02*
D03*
Y357690D02*
D03*
Y367190D02*
D03*
X2291020D02*
D03*
Y348190D02*
D03*
D121*
X2148520Y495640D02*
D03*
Y535640D02*
D03*
X2097720Y495640D02*
D03*
D122*
Y535640D02*
D03*
D123*
X1926520Y287640D02*
D03*
Y230640D02*
D03*
X1885520D02*
D03*
Y287640D02*
D03*
D124*
X2202070Y568640D02*
D03*
X2213070D02*
D03*
X2191070D02*
D03*
X2235070D02*
D03*
X2246070D02*
D03*
X2224070D02*
D03*
X2169070D02*
D03*
X2180070D02*
D03*
X2158070D02*
D03*
D125*
X2146320Y573640D02*
D03*
D126*
X2292320D02*
D03*
D127*
X2301320Y669640D02*
D03*
X2146320D02*
D03*
M02*
