G04*
G04 #@! TF.GenerationSoftware,Altium Limited,Altium Designer,20.0.2 (26)*
G04*
G04 Layer_Physical_Order=3*
G04 Layer_Color=1930808*
%FSLAX44Y44*%
%MOMM*%
G71*
G01*
G75*
%ADD15C,0.2000*%
%ADD93C,0.3000*%
%ADD103C,1.2000*%
%ADD105C,1.0160*%
%ADD106C,1.2636*%
G04:AMPARAMS|DCode=107|XSize=2.3876mm|YSize=2.3876mm|CornerRadius=0mm|HoleSize=0mm|Usage=FLASHONLY|Rotation=0.000|XOffset=0mm|YOffset=0mm|HoleType=Round|Shape=Relief|Width=0.254mm|Gap=0.254mm|Entries=4|*
%AMTHD107*
7,0,0,2.3876,1.8796,0.2540,45*
%
%ADD107THD107*%
%ADD108C,1.3500*%
G04:AMPARAMS|DCode=109|XSize=2.474mm|YSize=2.474mm|CornerRadius=0mm|HoleSize=0mm|Usage=FLASHONLY|Rotation=0.000|XOffset=0mm|YOffset=0mm|HoleType=Round|Shape=Relief|Width=0.254mm|Gap=0.254mm|Entries=4|*
%AMTHD109*
7,0,0,2.4740,1.9660,0.2540,45*
%
%ADD109THD109*%
G04:AMPARAMS|DCode=110|XSize=2.524mm|YSize=2.524mm|CornerRadius=0mm|HoleSize=0mm|Usage=FLASHONLY|Rotation=0.000|XOffset=0mm|YOffset=0mm|HoleType=Round|Shape=Relief|Width=0.254mm|Gap=0.254mm|Entries=4|*
%AMTHD110*
7,0,0,2.5240,2.0160,0.2540,45*
%
%ADD110THD110*%
%ADD111C,1.2500*%
%ADD112C,1.1620*%
G04:AMPARAMS|DCode=113|XSize=1.824mm|YSize=1.824mm|CornerRadius=0mm|HoleSize=0mm|Usage=FLASHONLY|Rotation=0.000|XOffset=0mm|YOffset=0mm|HoleType=Round|Shape=Relief|Width=0.254mm|Gap=0.254mm|Entries=4|*
%AMTHD113*
7,0,0,1.8240,1.3160,0.2540,45*
%
%ADD113THD113*%
%ADD114C,0.7000*%
G04:AMPARAMS|DCode=115|XSize=2.324mm|YSize=2.324mm|CornerRadius=0mm|HoleSize=0mm|Usage=FLASHONLY|Rotation=0.000|XOffset=0mm|YOffset=0mm|HoleType=Round|Shape=Relief|Width=0.254mm|Gap=0.254mm|Entries=4|*
%AMTHD115*
7,0,0,2.3240,1.8160,0.2540,45*
%
%ADD115THD115*%
G04:AMPARAMS|DCode=116|XSize=2.124mm|YSize=2.124mm|CornerRadius=0mm|HoleSize=0mm|Usage=FLASHONLY|Rotation=0.000|XOffset=0mm|YOffset=0mm|HoleType=Round|Shape=Relief|Width=0.254mm|Gap=0.254mm|Entries=4|*
%AMTHD116*
7,0,0,2.1240,1.6160,0.2540,45*
%
%ADD116THD116*%
G36*
X3273520Y708640D02*
X2608520D01*
Y732640D01*
X3273520D01*
Y708640D01*
D02*
G37*
G36*
X2564520Y708640D02*
X2083740Y708640D01*
Y695940D01*
X1974520D01*
Y708640D01*
X1945520D01*
Y732640D01*
X2564520D01*
Y708640D01*
D02*
G37*
G36*
X3273520Y184640D02*
X2608520D01*
Y208640D01*
X3273520D01*
Y184640D01*
D02*
G37*
G36*
X2564520D02*
X1945520D01*
Y208640D01*
X2564520D01*
Y184640D01*
D02*
G37*
D15*
X1899520Y723836D02*
X1945368D01*
X1899520Y189774D02*
X1944913D01*
D93*
X2164520Y507640D02*
X2273520D01*
Y558640D01*
X2274520Y559640D01*
X2398520Y555640D02*
Y559533D01*
Y409640D02*
Y472640D01*
X2397520Y408640D02*
X2398520Y409640D01*
X2322520Y408640D02*
X2397520D01*
X2316520Y402640D02*
X2322520Y408640D01*
X2322675Y366495D02*
Y396485D01*
X2313520Y342640D02*
X2316520Y345640D01*
X2224520Y342640D02*
X2313520D01*
X2222520Y344640D02*
X2224520Y342640D01*
X2222520Y344640D02*
Y406640D01*
X2203520Y425640D02*
X2222520Y406640D01*
X2161520Y425640D02*
X2203520D01*
X2161520D02*
Y504640D01*
X2164520Y507640D01*
X2278270Y559640D02*
X2320777D01*
X2274520D02*
X2278270D01*
X2320777D02*
X2398249D01*
X2080520Y552640D02*
X2170520D01*
X2170520Y552640D02*
X2170520Y552640D01*
X2170520Y507640D02*
Y552640D01*
X2080520Y479640D02*
Y552640D01*
X2092520Y467640D02*
X2143520D01*
Y422640D02*
Y467640D01*
Y422640D02*
X2158520Y407640D01*
Y400640D02*
Y407640D01*
Y400640D02*
X2163520Y395640D01*
X2163644Y395516D02*
X2195766D01*
X2163520Y395640D02*
X2163644Y395516D01*
X2195766D02*
Y425395D01*
X1972520Y411640D02*
X1974520Y409640D01*
Y315640D02*
X1979520Y310640D01*
X2104520D01*
X2107227Y270990D02*
Y306933D01*
Y215990D02*
Y218490D01*
Y209933D02*
Y215990D01*
Y218490D02*
Y270990D01*
X2104520Y310640D02*
X2104934D01*
X2107227Y308346D01*
Y306933D02*
Y308346D01*
X1924520Y309640D02*
Y364640D01*
Y309640D02*
X1969520Y264640D01*
X1970061Y208099D02*
Y264099D01*
X2404084Y669075D02*
Y711226D01*
X2297820Y639640D02*
X2320777D01*
X1996520Y597640D02*
X2038520Y639640D01*
X2297820Y608640D02*
X2320777D01*
X2040520Y548640D02*
X2100520Y608640D01*
X1980520Y548640D02*
X2040520D01*
X1974520Y349290D02*
Y359238D01*
Y315640D02*
Y349290D01*
Y359238D02*
Y367640D01*
X1858520Y474640D02*
X1859520D01*
X1886520D02*
X1949520Y411640D01*
X1964520D02*
X1972520D01*
X1949520D02*
X1964520D01*
X1974520Y367640D02*
Y409640D01*
X2080520Y467640D02*
X2092520D01*
X2177020Y559140D02*
X2274020D01*
X1975520Y475640D02*
X2106520Y344640D01*
X2229520Y209640D02*
Y245640D01*
X2164520Y310640D02*
X2229520Y245640D01*
X2106520Y344640D02*
X2222520D01*
X2199520Y308640D02*
X2320777D01*
X2398249D01*
Y210369D02*
Y308640D01*
X2398520Y472640D02*
Y555640D01*
X2278270Y608640D02*
X2297820D01*
X2320777D02*
X2398249D01*
X2150820D02*
X2273770D01*
X2100520D02*
X2150820D01*
X2273770D02*
X2278270D01*
X2404084Y647640D02*
Y669075D01*
X2118870Y639640D02*
X2125220D01*
X2084820D02*
X2091170D01*
X2150820D02*
X2297820D01*
X2038520D02*
X2042520D01*
X2091170D02*
X2118870D01*
X2320777D02*
X2398249D01*
X2044520D02*
X2056520D01*
X2125220D02*
X2150820D01*
X2056520D02*
X2084820D01*
X2042520D02*
X2044520D01*
X2398249D02*
X2404520D01*
X2404084Y640076D02*
Y647640D01*
X2316520Y402640D02*
X2322675Y396485D01*
X2316520Y345640D02*
X2320695Y349815D01*
X2322675Y351795D02*
Y366495D01*
X2320695Y349815D02*
X2322675Y351795D01*
Y366495D01*
X1980520Y654640D02*
Y696640D01*
X1953520Y627640D02*
X1962520Y636640D01*
X1859527Y364489D02*
X1924527D01*
X1886520Y474640D02*
Y606640D01*
X1902520Y622640D01*
X1947966D01*
X1948520D01*
X1953520Y627640D01*
X1944520Y622640D02*
X1948520D01*
X1962520Y636640D02*
X1969020Y643140D01*
X1953520Y627640D02*
X1962520Y636640D01*
X1969020Y643140D02*
X1980520Y654640D01*
D103*
X1900520Y713640D02*
D03*
X1911520D02*
D03*
X1922520D02*
D03*
X1933520D02*
D03*
X1944520D02*
D03*
X2608520D02*
D03*
X2597520D02*
D03*
X2586520D02*
D03*
X2575520D02*
D03*
X2564520D02*
D03*
X3317520D02*
D03*
X3306520D02*
D03*
X3295520D02*
D03*
X3284520D02*
D03*
X3273520D02*
D03*
X1943520Y203640D02*
D03*
X1932520D02*
D03*
X1921520D02*
D03*
X1910520D02*
D03*
X1899520D02*
D03*
X2608520D02*
D03*
X2597520D02*
D03*
X2586520D02*
D03*
X2575520D02*
D03*
X2564520D02*
D03*
X3317520D02*
D03*
X3306520D02*
D03*
X3295520D02*
D03*
X3284520D02*
D03*
X3273520D02*
D03*
D105*
X2564520Y708640D02*
Y732640D01*
X2083740Y708640D02*
X2564520Y708640D01*
X2083740Y695940D02*
Y708640D01*
X1974520Y695940D02*
X2083740D01*
X1974520D02*
Y708640D01*
X1945520D02*
X1974520D01*
X1945520D02*
Y732640D01*
X2564520D01*
Y184640D02*
Y208640D01*
X1945520Y184640D02*
X2564520D01*
X1945520D02*
Y208640D01*
X2564520D01*
X3273520Y184640D02*
Y208640D01*
X2608520Y184640D02*
X3273520D01*
X2608520D02*
Y208640D01*
X3273520D01*
X3273520Y708640D02*
Y732640D01*
X2608520Y708640D02*
X3273520D01*
X2608520D02*
Y732640D01*
X3273520D01*
X3359520D02*
Y782640D01*
X1859520D02*
X3359520D01*
X1859520Y733057D02*
Y782640D01*
Y733057D02*
X1859520Y732640D01*
X1899520D01*
Y708640D02*
Y732640D01*
X1859520Y708640D02*
X1899520Y708640D01*
X1859520Y208640D02*
Y708640D01*
Y208640D02*
X1899520D01*
Y184640D02*
Y208640D01*
X1859520Y184640D02*
X1899520D01*
X1859520Y134640D02*
Y184640D01*
Y134640D02*
X3359520D01*
Y184640D01*
X3317520D02*
X3359520D01*
X3317520D02*
Y208640D01*
X3359520D01*
Y472767D01*
X3359647Y663419D01*
X3358320Y663480D02*
X3359647Y663419D01*
X3355747Y664124D02*
X3358320Y663480D01*
X3353435Y665421D02*
X3355747Y664124D01*
X3351545Y667281D02*
X3353435Y665421D01*
X3350210Y669572D02*
X3351545Y667281D01*
X3349524Y672133D02*
X3350210Y669572D01*
X3349524Y672133D02*
X3349535Y674785D01*
X3350243Y677340D01*
X3351597Y679620D01*
X3353503Y681463D01*
X3355827Y682741D01*
X3358405Y683363D01*
X3359733Y683412D01*
X3359520Y683625D02*
X3359733Y683412D01*
X3359520Y683625D02*
Y708640D01*
X3319520D02*
X3359520D01*
X3317520Y708640D02*
X3319520Y708640D01*
X3317520Y708640D02*
Y732640D01*
X3359520D01*
D106*
X3313520Y638640D02*
D03*
Y658640D02*
D03*
X2959522Y335640D02*
D03*
X2979522D02*
D03*
X2959522Y355640D02*
D03*
X2979522D02*
D03*
X2959522Y375640D02*
D03*
X2979522D02*
D03*
X2959522Y395640D02*
D03*
X2979522D02*
D03*
X2959522Y415640D02*
D03*
X2979522D02*
D03*
X2909520Y375640D02*
D03*
X2929520D02*
D03*
X2589520D02*
D03*
X2609520D02*
D03*
X2829520Y335640D02*
D03*
Y355640D02*
D03*
X2909520D02*
D03*
Y335640D02*
D03*
Y455640D02*
D03*
Y415640D02*
D03*
Y395640D02*
D03*
Y475640D02*
D03*
Y535640D02*
D03*
Y515640D02*
D03*
Y595640D02*
D03*
Y575640D02*
D03*
X2829520Y675640D02*
D03*
Y655640D02*
D03*
X2909520Y675640D02*
D03*
Y655640D02*
D03*
X2869520Y335640D02*
D03*
X2849520D02*
D03*
X2889520Y355640D02*
D03*
Y335640D02*
D03*
X2869520Y355640D02*
D03*
X2929520D02*
D03*
Y335640D02*
D03*
Y435640D02*
D03*
Y455640D02*
D03*
Y415640D02*
D03*
Y395640D02*
D03*
Y475640D02*
D03*
Y535640D02*
D03*
Y515640D02*
D03*
Y495640D02*
D03*
Y595640D02*
D03*
Y575640D02*
D03*
Y615640D02*
D03*
Y555640D02*
D03*
X2869520Y675640D02*
D03*
Y655640D02*
D03*
X2849520Y675640D02*
D03*
X2889520D02*
D03*
Y655640D02*
D03*
X2929520Y675640D02*
D03*
X2589520Y355640D02*
D03*
Y335640D02*
D03*
X2609520Y355640D02*
D03*
X2629520D02*
D03*
Y335640D02*
D03*
X2649520D02*
D03*
Y355640D02*
D03*
X2669520Y335640D02*
D03*
X2689520D02*
D03*
Y355640D02*
D03*
X2709520Y335640D02*
D03*
Y355640D02*
D03*
X2729520Y335640D02*
D03*
X2749520D02*
D03*
Y355640D02*
D03*
X2769520D02*
D03*
Y335640D02*
D03*
X2789520D02*
D03*
X2809520Y355640D02*
D03*
Y335640D02*
D03*
X2589520Y455640D02*
D03*
Y435640D02*
D03*
Y415640D02*
D03*
Y395640D02*
D03*
X2609520Y455640D02*
D03*
Y415640D02*
D03*
Y395640D02*
D03*
X2589520Y475640D02*
D03*
Y495640D02*
D03*
Y515640D02*
D03*
Y535640D02*
D03*
X2609520Y475640D02*
D03*
Y515640D02*
D03*
Y535640D02*
D03*
X2589520Y595640D02*
D03*
Y615640D02*
D03*
Y555640D02*
D03*
Y575640D02*
D03*
X2609520Y595640D02*
D03*
Y575640D02*
D03*
X2669520Y675640D02*
D03*
X2689520D02*
D03*
Y655640D02*
D03*
X2709520Y675640D02*
D03*
Y655640D02*
D03*
X2729520Y675640D02*
D03*
X2749520D02*
D03*
Y655640D02*
D03*
X2769520Y675640D02*
D03*
Y655640D02*
D03*
X2789520D02*
D03*
X2809520Y675640D02*
D03*
Y655640D02*
D03*
X3313520Y298640D02*
D03*
Y498640D02*
D03*
Y238640D02*
D03*
Y258640D02*
D03*
X3333520Y218640D02*
D03*
X3313520Y218640D02*
D03*
X3333520Y238640D02*
D03*
Y258640D02*
D03*
Y278640D02*
D03*
X3313520Y278640D02*
D03*
X3333520Y298640D02*
D03*
X3313520Y438640D02*
D03*
Y458640D02*
D03*
X3333520Y418640D02*
D03*
X3313520Y418640D02*
D03*
X3333520Y438640D02*
D03*
Y458640D02*
D03*
Y478640D02*
D03*
X3313520D02*
D03*
X3333520Y498640D02*
D03*
Y398640D02*
D03*
X3313520Y378640D02*
D03*
X3333520Y378640D02*
D03*
X3313520Y398640D02*
D03*
X3333520Y358640D02*
D03*
X3313520Y338640D02*
D03*
X3333520Y338640D02*
D03*
X3313520Y358640D02*
D03*
X3333520Y318640D02*
D03*
X3313520Y318640D02*
D03*
Y518640D02*
D03*
X3333520D02*
D03*
X3313520Y558640D02*
D03*
X3333520D02*
D03*
X3313520Y598640D02*
D03*
X3333520Y578640D02*
D03*
X3313520D02*
D03*
X3333520Y598640D02*
D03*
X3313520Y698640D02*
D03*
X3333520D02*
D03*
X3313520Y678640D02*
D03*
X3333520D02*
D03*
Y658640D02*
D03*
Y638640D02*
D03*
D107*
X2909520Y435640D02*
D03*
Y495640D02*
D03*
Y615640D02*
D03*
Y555640D02*
D03*
X2849520Y355640D02*
D03*
Y655640D02*
D03*
X2929520D02*
D03*
X2609520Y335640D02*
D03*
X2669520Y355640D02*
D03*
X2729520D02*
D03*
X2789520D02*
D03*
X2609520Y435640D02*
D03*
Y495640D02*
D03*
Y615640D02*
D03*
Y555640D02*
D03*
X2669520Y655640D02*
D03*
X2729520D02*
D03*
X2789520Y675640D02*
D03*
X3333520Y538640D02*
D03*
X3313520D02*
D03*
Y618640D02*
D03*
X3333520D02*
D03*
D108*
X3231120Y325040D02*
D03*
Y350440D02*
D03*
X3256520Y325040D02*
D03*
Y350440D02*
D03*
X2012520Y394640D02*
D03*
Y374640D02*
D03*
X1986520Y394640D02*
D03*
Y374640D02*
D03*
X2012620Y349290D02*
D03*
Y323890D02*
D03*
X1987220Y349290D02*
D03*
Y323890D02*
D03*
X1961820Y349290D02*
D03*
Y323890D02*
D03*
X1911020Y349290D02*
D03*
Y323890D02*
D03*
X2418320Y350440D02*
D03*
Y325040D02*
D03*
X2545320Y350440D02*
D03*
Y325040D02*
D03*
X2519920Y350440D02*
D03*
Y325040D02*
D03*
X2494520Y350440D02*
D03*
Y325040D02*
D03*
X2469120Y350440D02*
D03*
Y325040D02*
D03*
X2443720Y350440D02*
D03*
Y325040D02*
D03*
D109*
X1885620Y349290D02*
D03*
Y323890D02*
D03*
X1936420Y349290D02*
D03*
Y323890D02*
D03*
D110*
X2254320Y673640D02*
D03*
X2174520D02*
D03*
D111*
X2359520Y229640D02*
D03*
Y389640D02*
D03*
Y329640D02*
D03*
Y289640D02*
D03*
Y529640D02*
D03*
Y689640D02*
D03*
Y629640D02*
D03*
Y589640D02*
D03*
X2359514Y489640D02*
D03*
Y429640D02*
D03*
D112*
X1886520Y377640D02*
D03*
X1918520Y367640D02*
D03*
D113*
X2884520Y309640D02*
D03*
X2999520Y474640D02*
D03*
Y503640D02*
D03*
Y610640D02*
D03*
Y638640D02*
D03*
X3048520Y431640D02*
D03*
X3099520Y354640D02*
D03*
X2982520Y313640D02*
D03*
X3100520Y329640D02*
D03*
X3098520Y301640D02*
D03*
X2317272Y619110D02*
D03*
X2231520Y329640D02*
D03*
X2622520Y288640D02*
D03*
X2726520Y273640D02*
D03*
X2814520Y275640D02*
D03*
Y294640D02*
D03*
X3100520Y391640D02*
D03*
X3018520Y272640D02*
D03*
X3001520Y352640D02*
D03*
X2318099Y657949D02*
D03*
X2403519Y701137D02*
D03*
X1982520Y621640D02*
D03*
X2169520Y469640D02*
D03*
X2210520D02*
D03*
X2204520Y401640D02*
D03*
X2251520Y468640D02*
D03*
X2007520Y520640D02*
D03*
X2265520Y510640D02*
D03*
X2105520Y673640D02*
D03*
X2067520Y651640D02*
D03*
X2315520Y410640D02*
D03*
X2137520Y474640D02*
D03*
X2165520Y536640D02*
D03*
X2104520Y616880D02*
D03*
X2167520D02*
D03*
X2305520Y545640D02*
D03*
X2055520Y504639D02*
D03*
X2166520Y401640D02*
D03*
X2246520Y394541D02*
D03*
X2092520Y439764D02*
D03*
X2045520Y562640D02*
D03*
X2008520Y555640D02*
D03*
X2349520Y359640D02*
D03*
X2370520D02*
D03*
X2113520Y367640D02*
D03*
X2103520Y325640D02*
D03*
X1919520Y612640D02*
D03*
X1928520D02*
D03*
X1937520D02*
D03*
X1962520Y444640D02*
D03*
X2303519Y573639D02*
D03*
X2122520Y305640D02*
D03*
X2124520Y232640D02*
D03*
X2169520Y226640D02*
D03*
X2178520Y373640D02*
D03*
X2316520Y357640D02*
D03*
X2215363Y616797D02*
D03*
X2286520Y219640D02*
D03*
X2309770Y219640D02*
D03*
X2191520Y583640D02*
D03*
X2048520Y348640D02*
D03*
X2348520Y399640D02*
D03*
X2349520Y519640D02*
D03*
X2368520D02*
D03*
X2370520Y399640D02*
D03*
X1968501Y482621D02*
D03*
X1868520Y631640D02*
D03*
X2250519Y373640D02*
D03*
D114*
X3049520Y411370D02*
D03*
X3157520Y365640D02*
D03*
Y378640D02*
D03*
X3156520Y304640D02*
D03*
Y316640D02*
D03*
X3146520Y329640D02*
D03*
Y354640D02*
D03*
X3148520Y391640D02*
D03*
X2975520Y661140D02*
D03*
Y585940D02*
D03*
X3087520Y352640D02*
D03*
X2285520Y620640D02*
D03*
X2318520Y600195D02*
D03*
X2454520Y458640D02*
D03*
Y489640D02*
D03*
X2265520Y544640D02*
D03*
X2252520D02*
D03*
X2243520D02*
D03*
X2233440Y535720D02*
D03*
X2225520Y528971D02*
D03*
X2454520Y501640D02*
D03*
Y478640D02*
D03*
Y447640D02*
D03*
Y533640D02*
D03*
X2260333Y577424D02*
D03*
X2258520Y568640D02*
D03*
X2269520Y565640D02*
D03*
X2454520Y523640D02*
D03*
Y511640D02*
D03*
Y546639D02*
D03*
X2242662Y610640D02*
D03*
X2246519Y597639D02*
D03*
X2258519Y585639D02*
D03*
X2454520Y567640D02*
D03*
Y556640D02*
D03*
Y589640D02*
D03*
X2185520Y655640D02*
D03*
X2454520Y578640D02*
D03*
X2177520Y653640D02*
D03*
X2158520Y668640D02*
D03*
X2189520Y681640D02*
D03*
X2191520Y672640D02*
D03*
X2454520Y599640D02*
D03*
X2454520Y621640D02*
D03*
X2454520Y612270D02*
D03*
X2454520Y427640D02*
D03*
Y405640D02*
D03*
Y385640D02*
D03*
Y468640D02*
D03*
Y436640D02*
D03*
Y416640D02*
D03*
Y395640D02*
D03*
X2680520Y239640D02*
D03*
Y231640D02*
D03*
X3147520Y283640D02*
D03*
X3139520D02*
D03*
X3001520Y399640D02*
D03*
Y328640D02*
D03*
Y421640D02*
D03*
Y339640D02*
D03*
X3055520Y375640D02*
D03*
Y357640D02*
D03*
Y303640D02*
D03*
Y285640D02*
D03*
X3052520Y320640D02*
D03*
X3053520Y395640D02*
D03*
X3245520Y475640D02*
D03*
X3255912Y505640D02*
D03*
X3245520Y607640D02*
D03*
X3255912Y637640D02*
D03*
X2975520Y451940D02*
D03*
Y527140D02*
D03*
X2203520Y668640D02*
D03*
X2367519Y682639D02*
D03*
X2114863Y396983D02*
D03*
X2121520Y401640D02*
D03*
X2099520Y404640D02*
D03*
X2089520D02*
D03*
X2081520Y421640D02*
D03*
X2055520Y446640D02*
D03*
X2040520Y456640D02*
D03*
X2159520Y687640D02*
D03*
X2122410Y616880D02*
D03*
X2241444Y587564D02*
D03*
X2307520Y334640D02*
D03*
X2295520D02*
D03*
X1908520Y479640D02*
D03*
Y487640D02*
D03*
X1958520Y543640D02*
D03*
X1965520D02*
D03*
Y550640D02*
D03*
X2077520Y249640D02*
D03*
Y241640D02*
D03*
X2266520Y314640D02*
D03*
X2258520D02*
D03*
X2281520Y279640D02*
D03*
X2092520Y460640D02*
D03*
X2101520Y474640D02*
D03*
X2198520Y439640D02*
D03*
X2008520Y510640D02*
D03*
X2133520Y239640D02*
D03*
Y251640D02*
D03*
X2086520Y386390D02*
D03*
X2067520Y631640D02*
D03*
X2099520Y582640D02*
D03*
Y568640D02*
D03*
X2036520Y622640D02*
D03*
X2053520Y588827D02*
D03*
X2044520Y499640D02*
D03*
X2058520Y426640D02*
D03*
X2067520Y405640D02*
D03*
X2075520D02*
D03*
X2067520Y399640D02*
D03*
X2055520Y470640D02*
D03*
X2018520Y450640D02*
D03*
X1948520Y559640D02*
D03*
X2067520Y641640D02*
D03*
X2095520Y645640D02*
D03*
X2192520Y527640D02*
D03*
X2240520Y440640D02*
D03*
X2254520Y510640D02*
D03*
X2402520Y659640D02*
D03*
X2403520Y579640D02*
D03*
X2369520Y479640D02*
D03*
X2111520Y595640D02*
D03*
X2129520Y460640D02*
D03*
X2102520Y604402D02*
D03*
X2245520Y239640D02*
D03*
X2281520D02*
D03*
X2095520Y610640D02*
D03*
X2134520Y565640D02*
D03*
X2134078Y592880D02*
D03*
X2134520Y450640D02*
D03*
X2135520Y440640D02*
D03*
X2045676Y478796D02*
D03*
X2159433Y695785D02*
D03*
X2246519Y659639D02*
D03*
X2219520Y666640D02*
D03*
X2220520Y654640D02*
D03*
X2208519Y654639D02*
D03*
X2089277Y572397D02*
D03*
X2206520Y616880D02*
D03*
X2315520Y483640D02*
D03*
X2315519Y471640D02*
D03*
X2239520Y496640D02*
D03*
X2001520Y544640D02*
D03*
X2282520Y259640D02*
D03*
X2187370Y401640D02*
D03*
X2196520D02*
D03*
X2278519Y424640D02*
D03*
X2274520Y392640D02*
D03*
X2256520Y394541D02*
D03*
X2266520Y385640D02*
D03*
X2276340Y379640D02*
D03*
X2104520Y439764D02*
D03*
X2218520Y433241D02*
D03*
X2316520Y679640D02*
D03*
X2157520Y616880D02*
D03*
X2040520Y546640D02*
D03*
X2226520Y684640D02*
D03*
X2234520D02*
D03*
X2299251Y490223D02*
D03*
X2272520Y329640D02*
D03*
X2014520Y547640D02*
D03*
X2029175Y545985D02*
D03*
X2046520Y571640D02*
D03*
X2048520Y550573D02*
D03*
X2022520Y557673D02*
D03*
X2140756Y587082D02*
D03*
X2038520Y358640D02*
D03*
X2132520Y401640D02*
D03*
X2160520Y645640D02*
D03*
X2162520Y653640D02*
D03*
X2217520Y678640D02*
D03*
X2233520Y606640D02*
D03*
X2223520Y605640D02*
D03*
X2020520Y530640D02*
D03*
X2135320Y574739D02*
D03*
X2226520Y432640D02*
D03*
X2169520Y434054D02*
D03*
X1958520Y550640D02*
D03*
X2126520Y446640D02*
D03*
X2113520D02*
D03*
X1908520Y470640D02*
D03*
X2087520Y371640D02*
D03*
Y340640D02*
D03*
X2075520Y399640D02*
D03*
X2093520Y325640D02*
D03*
X2125520Y329640D02*
D03*
X2157520Y333640D02*
D03*
Y327640D02*
D03*
X2256945Y269065D02*
D03*
X2166617Y353737D02*
D03*
X2163520Y333640D02*
D03*
Y327640D02*
D03*
X2132520Y329640D02*
D03*
Y322640D02*
D03*
X2125520D02*
D03*
X2301520Y334640D02*
D03*
X2314520Y319640D02*
D03*
X2307520D02*
D03*
X2301520D02*
D03*
X2194519Y486639D02*
D03*
X2198519Y498639D02*
D03*
X2218933Y504552D02*
D03*
X2032520Y519640D02*
D03*
X2031520Y511639D02*
D03*
X2051661Y485499D02*
D03*
X2314998Y579640D02*
D03*
X2314657Y559285D02*
D03*
X2402520D02*
D03*
X2208520Y527640D02*
D03*
X2213744Y510640D02*
D03*
X2202520Y516640D02*
D03*
X2032520Y487640D02*
D03*
X2031520Y475640D02*
D03*
X2274520Y411640D02*
D03*
X2201050Y591778D02*
D03*
X2313520Y531640D02*
D03*
X2300520Y512640D02*
D03*
X2307519Y490223D02*
D03*
X2252519Y591639D02*
D03*
X2219519Y545639D02*
D03*
X2077520Y327640D02*
D03*
X2369612Y600005D02*
D03*
X2265520Y610791D02*
D03*
X2204520Y387640D02*
D03*
Y379640D02*
D03*
X2189520Y389640D02*
D03*
X2176520Y401640D02*
D03*
X2279520Y355647D02*
D03*
X2348520Y379640D02*
D03*
X2370520D02*
D03*
X2363519Y459640D02*
D03*
X2350520Y499640D02*
D03*
X2368875Y539285D02*
D03*
X2368520Y499640D02*
D03*
X2358519Y475639D02*
D03*
X2349520Y459640D02*
D03*
X2402520Y421165D02*
D03*
X2028520Y661640D02*
D03*
X1909193Y560313D02*
D03*
X2248520Y287640D02*
D03*
X2018520Y491640D02*
D03*
X1922442Y643718D02*
D03*
X1881520Y633640D02*
D03*
X1896520Y641640D02*
D03*
D115*
X2750520Y286260D02*
D03*
X1989520Y495640D02*
D03*
X1929520Y483640D02*
D03*
D116*
X1928520Y593640D02*
D03*
M02*
