M48
;Layer_Color=9474304
;FILE_FORMAT=4:4
METRIC,LZ
;TYPE=PLATED
T1F00S00C0.3000
T2F00S00C0.6000
T3F00S00C0.7620
T4F00S00C0.8000
T5F00S00C0.8500
T6F00S00C0.8636
T7F00S00C0.9500
T8F00S00C1.0000
%
T01
X0207752Y0024164
Y0024964
X0213352Y0025164
Y0023964
X0212452Y0023264
X0216952Y0022664
X0224552Y0023964
X0228152
X0228252Y0025964
X0228152Y0027964
X02256945Y00269065
X0224852Y0028764
X0225852Y0031464
X0226652
X0227252Y0032964
X0229552Y0033464
X0230152
X0230752
Y0031964
X0230152
X0231452
X0231652Y0035764
X0234952Y0035964
X0237052
Y0037964
X0234852
X0227634
X0227452Y0039264
X0226652Y0038564
X0225652Y00394541
X0224652
X02250519Y0037364
X0227952Y00355647
X0223152Y0032964
X0216352Y0032764
X0215752
Y0033364
X0216352
X02166617Y00353737
X0217852Y0037364
X0218952Y0038964
X0220452Y0038764
Y0037964
X0211352Y0036764
X0208752Y0037164
X0208652Y0038639
X0208752Y0034064
X0209352Y0032564
X0210352
X0212552Y0032264
X0213252
Y0032964
X0212552
X0212252Y0030564
X0207752Y0032764
X0204852Y0034864
X0203852Y0035864
X0228652Y0021964
X0230977Y0021964
X0245452Y0038564
Y0039564
X0262252Y0028864
X0268052Y0023964
Y0023164
X0272652Y0027364
X0281452Y0027564
Y0029464
X0288452Y0030964
X0298252Y0031364
X0300152Y0032864
Y0033964
Y0035264
X0305552Y0035764
Y0037564
X0305352Y0039564
X0310052Y0039164
X0309952Y0035464
X0308752Y0035264
X0310052Y0032964
X0309852Y0030164
X0305552Y0030364
Y0028564
X0305252Y0032064
X0301852Y0027264
X0313952Y0028364
X0314752
X0315652Y0030464
Y0031664
X0314652Y0032964
Y0035464
X0315752Y0036564
Y0037864
X0314852Y0039164
X0324552Y0047564
X03255912Y0050564
X0324552Y0060764
X03255912Y0063764
X0299952Y0063864
Y0061064
X0297552Y0058594
Y0052714
X0299952Y0050364
Y0047464
X0297552Y0045194
X0300152Y0042164
Y0039964
X0304952Y0041137
X0304852Y0043164
X0297552Y0066114
X0245452Y0062164
X0245452Y0061227
X0245452Y0059964
Y0058964
Y0057864
Y0056764
Y0055664
Y00546639
Y0053364
Y0052364
Y0051164
Y0050164
Y0048964
Y0047864
Y0046864
Y0045864
Y0044764
Y0043664
Y0042764
Y0041664
Y0040564
X0240252Y00421165
Y00559285
X0240352Y0057964
X0240252Y0065964
X02403519Y00701137
X02367519Y00682639
X0231652Y0067964
X02318099Y00657949
X02317272Y0061911
X0231852Y00600195
X02314998Y0057964
X02303519Y00573639
X02314657Y00559285
X0230552Y0054564
X0231352Y0053164
X0230052Y0051264
X02299251Y00490223
X02307519
X0231552Y0048364
X02315519Y0047164
X0234952Y0045964
X02363519Y0045964
X02358519Y00475639
X0236952Y0047964
X0236852Y0049964
X0235052
X0234952Y0051964
X0236852
X02368875Y00539285
X02369612Y00600005
X0228552Y0062064
X0226552Y00610791
X02242662Y0061064
X0223352Y0060664
X0222352Y0060564
X02215363Y00616797
X0220652Y0061688
X0220105Y00591778
X0219152Y0058364
X02241444Y00587564
X02246519Y00597639
X02252519Y00591639
X02258519Y00585639
X02260333Y00577424
X0225852Y0056864
X0226952Y0056564
X0226552Y0054464
X0225252
X0224352
X0223344Y0053572
X0222552Y00528971
X0220852Y0052764
X0219252
X0220252Y0051664
X02213744Y0051064
X02218933Y00504552
X02198519Y00498639
X02194519Y00486639
X0221052Y0046964
X0216952
Y00434054
X0219852Y0043964
X0221852Y00433241
X0222652Y0043264
X0224052Y0044064
X0225152Y0046864
X0223952Y0049664
X0225452Y0051064
X0226552
X02219519Y00545639
X0216552Y0053664
X0213452Y0056564
X0213532Y00574739
X02140756Y00587082
X02134078Y0059288
X0211152Y0059564
X0210252Y00604402
X0209552Y0061064
X0210452Y0061688
X0212241Y0061688
X0215752Y0061688
X0216752
X0216052Y0064564
X0216252Y0065364
X0217752
X0218552Y0065564
X0219152Y0067264
X0218952Y0068164
X0220352Y0066864
X0221952Y0066664
X0222052Y0065464
X02208519Y00654639
X0221752Y0067864
X0222652Y0068464
X0223452
X02246519Y00659639
X0215852Y0066864
X0215952Y0068764
X02159433Y00695785
X0210552Y0067364
X0209552Y0064564
X0206752Y0064164
Y0063164
Y0065164
X0202852Y0066164
X0203652Y0062264
X0205352Y00588827
X0204652Y0057164
X0204552Y0056264
X0204852Y00550573
X0204052Y0054664
X02029175Y00545985
X0201452Y0054764
X0200852Y0055564
X0202252Y00557673
X0202052Y0053064
X0200752Y0052064
X0200852Y0051064
X0203152Y00511639
X0203252Y0051964
X0204452Y0049964
X0205552Y00504639
X02051661Y00485499
X02045676Y00478796
X0203152Y0047564
X0203252Y0048764
X0201852Y0049164
Y0045064
X0204052Y0045664
X0205552Y0044664
X0205852Y0042664
X0208152Y0042164
X0207552Y0040564
Y0039964
X0206752
Y0040564
X0208952Y0040464
X0209952
X02114863Y00396983
X0212152Y0040164
X0213252
X0216652
X0217652
X0218737
X0219652
X0220452
X0227452Y0041164
X02278519Y0042464
X0231552Y0041064
X0234852Y0039964
X0237052
X0213552Y0044064
X0213452Y0045064
X0212652Y0044664
X0211352
X0210452Y00439764
X0209252
Y0046064
X0210152Y0047464
X0213752
X0212952Y0046064
X0205552Y0047064
X0200152Y0054464
X02089277Y00572397
X0209952Y0056864
Y0058264
X0198252Y0062164
X0193752Y0061264
X0192852
X0191952
X01922442Y00643718
X0189652Y0064164
X0188152Y0063364
X0186852Y0063164
X01909193Y00560313
X0194852Y0055964
X0195852Y0055064
X0196552
Y0054364
X0195852
X01968501Y00482621
X0196252Y0044464
X0190852Y0047064
X0190852Y0047964
Y0048764
T02
X0192852Y0059364
T03
X0188652Y0037764
X0191852Y0036764
T04
X0189952Y0020364
X0191052
X0192152
X0193252
X0194352
X0256452
X0257552
X0258652
X0259752
X0260852
X0275052Y0028626
X0327352Y0020364
X0328452
X0329552
X0330652
X0331752
X0331752Y0071364
X0330652
X0329552
X0328452
X0327352
X0260852
X0259752
X0258652
X0257552
X0256452
X0198952Y0049564
X0192952Y0048364
X0193352Y0071364
X0192252
X0191152
X0190052
X0194452
T05
X0235952Y0022964
Y0028964
Y0032964
Y0038964
X02359514Y0042964
Y0048964
X0235952Y0052964
Y0058964
Y0062964
Y0068964
T06
X0258952Y0033564
Y0035564
Y0037564
X0260952
Y0035564
X0262952
Y0033564
X0260952
X0264952
X0266952
Y0035564
X0264952
X0268952
X0270952
Y0033564
X0268952
X0272952
Y0035564
X0274952
X0276952
Y0033564
X0274952
X0260952Y0039564
X0258952
X0278952Y0035564
X0280952
X0282952
X0284952
Y0033564
X0282952
X0280952
X0278952
X0286952
X0288952
X0290952
Y0035564
Y0037564
X0292952
Y0035564
Y0033564
X02959522
X02979522
Y0035564
Y0037564
X02959522
Y0035564
Y0039564
X02979522
X0292952
X0290952
X0288952Y0035564
X0286952
X0331352Y0035864
Y0033864
X0333352Y0033864
Y0035864
Y0037864
X0331352Y0037864
Y0031864
Y0029864
Y0027864
Y0025864
Y0023864
Y0021864
X0333352Y0021864
Y0023864
Y0025864
Y0027864
Y0029864
Y0031864
Y0039864
Y0041864
Y0043864
Y0045864
Y0047864
X0331352
Y0045864
Y0043864
Y0041864
Y0039864
Y0049864
Y0051864
X0333352
Y0049864
Y0053864
Y0055864
X0331352
Y0053864
Y0057864
Y0059864
X0333352
Y0057864
Y0061864
Y0063864
X0331352
Y0061864
Y0065864
Y0067864
Y0069864
X0333352
Y0067864
Y0065864
X0292952Y0065564
X0290952
X0288952
X0286952
Y0067564
X0284952
X0282952
Y0065564
X0284952
X0280952
X0278952
Y0067564
X0280952
X0288952
X0290952
X0292952
Y0061564
X0290952
Y0059564
Y0057564
Y0055564
Y0053564
Y0051564
Y0049564
Y0047564
Y0045564
Y0043564
Y0041564
X0292952
Y0043564
Y0045564
Y0047564
Y0049564
Y0051564
Y0053564
Y0055564
Y0057564
Y0059564
X02959522Y0041564
X02979522
X0260952
X0258952
Y0043564
Y0045564
X0260952
Y0043564
Y0047564
X0258952
Y0049564
Y0051564
Y0053564
Y0055564
Y0057564
Y0059564
Y0061564
X0260952
Y0059564
Y0057564
Y0055564
Y0053564
Y0051564
Y0049564
X0266952Y0065564
Y0067564
X0268952
X0270952
Y0065564
X0268952
X0272952
Y0067564
X0274952
X0276952
Y0065564
X0274952
T07
X0188562Y0032389
Y0034929
X0191102
X0193642
X0196182
Y0032389
X0193642
X0191102
X0198722
X0201262
Y0034929
X0198722
X0198652Y0037464
Y0039464
X0201252
Y0037464
X0241832Y0035044
Y0032504
X0244372
X0246912
X0249452
X0251992
X0254532
Y0035044
X0251992
X0249452
X0246912
X0244372
X0323112
Y0032504
X0325652
Y0035044
T08
X0217452Y0067364
X0225432
M30
